STARTFONT 2.1
FONT -Adobe-Times-Medium-R-Normal--11-80-100-100-P-54-ISO10646-1
SIZE 8 100 100
FONTBOUNDINGBOX 12 17 -2 -4
COMMENT ISO10646-1 extension by Markus Kuhn <mkuhn@acm.org>, 2001-03-20
COMMENT 
COMMENT +
COMMENT  Copyright 1984-1989, 1994 Adobe Systems Incorporated.
COMMENT  Copyright 1988, 1994 Digital Equipment Corporation.
COMMENT
COMMENT  Adobe is a trademark of Adobe Systems Incorporated which may be
COMMENT  registered in certain jurisdictions.
COMMENT  Permission to use these trademarks is hereby granted only in
COMMENT  association with the images described in this file.
COMMENT
COMMENT  Permission to use, copy, modify, distribute and sell this software
COMMENT  and its documentation for any purpose and without fee is hereby
COMMENT  granted, provided that the above copyright notices appear in all
COMMENT  copies and that both those copyright notices and this permission
COMMENT  notice appear in supporting documentation, and that the names of
COMMENT  Adobe Systems and Digital Equipment Corporation not be used in
COMMENT  advertising or publicity pertaining to distribution of the software
COMMENT  without specific, written prior permission.  Adobe Systems and
COMMENT  Digital Equipment Corporation make no representations about the
COMMENT  suitability of this software for any purpose.  It is provided "as
COMMENT  is" without express or implied warranty.
COMMENT -
STARTPROPERTIES 26
FOUNDRY "Adobe"
FAMILY_NAME "Times"
WEIGHT_NAME "Medium"
SLANT "R"
SETWIDTH_NAME "Normal"
ADD_STYLE_NAME ""
PIXEL_SIZE 11
POINT_SIZE 80
RESOLUTION_X 100
RESOLUTION_Y 100
SPACING "P"
AVERAGE_WIDTH 54
CHARSET_REGISTRY "ISO10646"
CHARSET_ENCODING "1"
CAP_HEIGHT 7
X_HEIGHT 5
FONT_ASCENT 8
FONT_DESCENT 3
FACE_NAME "Times Roman"
COPYRIGHT "Copyright (c) 1984, 1987 Adobe Systems Incorporated. All Rights Reserved. Copyright (c) 1988, 1991 Digital Equipment Corporation. All Rights Reserved."
NOTICE "Times is a trademark of Linotype-Hell AG and/or its subsidiaries."

STARTCHAR char0
ENCODING 0
SWIDTH 722 0
DWIDTH 8 0
BBX 7 7 0 0
BITMAP
AA
00
82
00
82
00
AA
ENDCHAR
STARTCHAR space
ENCODING 32
SWIDTH 250 0
DWIDTH 2 0
BBX 1 1 0 0
BITMAP
00
ENDCHAR
STARTCHAR exclam
ENCODING 33
SWIDTH 333 0
DWIDTH 3 0
BBX 1 7 1 0
BITMAP
80
80
80
80
80
00
80
ENDCHAR
STARTCHAR quotedbl
ENCODING 34
SWIDTH 408 0
DWIDTH 4 0
BBX 3 2 0 5
BITMAP
A0
A0
ENDCHAR
STARTCHAR numbersign
ENCODING 35
SWIDTH 500 0
DWIDTH 5 0
BBX 5 7 0 0
BITMAP
50
50
F8
50
F8
50
50
ENDCHAR
STARTCHAR dollar
ENCODING 36
SWIDTH 500 0
DWIDTH 5 0
BBX 4 9 0 -1
BITMAP
20
70
90
80
60
10
90
E0
20
ENDCHAR
STARTCHAR percent
ENCODING 37
SWIDTH 833 0
DWIDTH 8 0
BBX 7 7 0 0
BITMAP
7E
A4
A8
56
2A
2A
44
ENDCHAR
STARTCHAR ampersand
ENCODING 38
SWIDTH 778 0
DWIDTH 8 0
BBX 8 7 0 0
BITMAP
30
50
6E
74
98
8D
76
ENDCHAR
STARTCHAR quotesingle
ENCODING 39
SWIDTH 180 0
DWIDTH 2 0
BBX 1 2 0 5
BITMAP
80
80
ENDCHAR
STARTCHAR parenleft
ENCODING 40
SWIDTH 333 0
DWIDTH 4 0
BBX 3 9 0 -2
BITMAP
20
40
40
80
80
80
40
40
20
ENDCHAR
STARTCHAR parenright
ENCODING 41
SWIDTH 333 0
DWIDTH 4 0
BBX 3 9 0 -2
BITMAP
80
40
40
20
20
20
40
40
80
ENDCHAR
STARTCHAR asterisk
ENCODING 42
SWIDTH 500 0
DWIDTH 5 0
BBX 3 3 1 4
BITMAP
A0
40
A0
ENDCHAR
STARTCHAR plus
ENCODING 43
SWIDTH 564 0
DWIDTH 6 0
BBX 5 5 0 0
BITMAP
20
20
F8
20
20
ENDCHAR
STARTCHAR comma
ENCODING 44
SWIDTH 250 0
DWIDTH 3 0
BBX 2 2 0 -1
BITMAP
C0
40
ENDCHAR
STARTCHAR hyphen
ENCODING 45
SWIDTH 333 0
DWIDTH 4 0
BBX 3 1 0 2
BITMAP
E0
ENDCHAR
STARTCHAR period
ENCODING 46
SWIDTH 250 0
DWIDTH 3 0
BBX 1 1 1 0
BITMAP
80
ENDCHAR
STARTCHAR slash
ENCODING 47
SWIDTH 278 0
DWIDTH 3 0
BBX 3 7 0 0
BITMAP
20
20
40
40
40
80
80
ENDCHAR
STARTCHAR zero
ENCODING 48
SWIDTH 500 0
DWIDTH 5 0
BBX 4 7 0 0
BITMAP
60
90
90
90
90
90
60
ENDCHAR
STARTCHAR one
ENCODING 49
SWIDTH 500 0
DWIDTH 5 0
BBX 3 7 1 0
BITMAP
40
C0
40
40
40
40
E0
ENDCHAR
STARTCHAR two
ENCODING 50
SWIDTH 500 0
DWIDTH 5 0
BBX 4 7 0 0
BITMAP
60
90
10
20
20
40
F0
ENDCHAR
STARTCHAR three
ENCODING 51
SWIDTH 500 0
DWIDTH 5 0
BBX 4 7 0 0
BITMAP
60
90
10
60
10
10
E0
ENDCHAR
STARTCHAR four
ENCODING 52
SWIDTH 500 0
DWIDTH 5 0
BBX 5 7 0 0
BITMAP
10
30
50
90
F8
10
10
ENDCHAR
STARTCHAR five
ENCODING 53
SWIDTH 500 0
DWIDTH 5 0
BBX 4 7 0 0
BITMAP
70
40
E0
10
10
10
E0
ENDCHAR
STARTCHAR six
ENCODING 54
SWIDTH 500 0
DWIDTH 5 0
BBX 4 7 0 0
BITMAP
30
40
E0
90
90
90
60
ENDCHAR
STARTCHAR seven
ENCODING 55
SWIDTH 500 0
DWIDTH 5 0
BBX 4 7 0 0
BITMAP
F0
90
20
20
40
40
40
ENDCHAR
STARTCHAR eight
ENCODING 56
SWIDTH 500 0
DWIDTH 5 0
BBX 4 7 0 0
BITMAP
60
90
90
60
90
90
60
ENDCHAR
STARTCHAR nine
ENCODING 57
SWIDTH 500 0
DWIDTH 5 0
BBX 4 7 0 0
BITMAP
60
90
90
90
70
20
C0
ENDCHAR
STARTCHAR colon
ENCODING 58
SWIDTH 278 0
DWIDTH 3 0
BBX 1 5 1 0
BITMAP
80
00
00
00
80
ENDCHAR
STARTCHAR semicolon
ENCODING 59
SWIDTH 278 0
DWIDTH 3 0
BBX 2 6 0 -1
BITMAP
40
00
00
00
C0
40
ENDCHAR
STARTCHAR less
ENCODING 60
SWIDTH 564 0
DWIDTH 5 0
BBX 3 5 1 0
BITMAP
20
40
80
40
20
ENDCHAR
STARTCHAR equal
ENCODING 61
SWIDTH 564 0
DWIDTH 6 0
BBX 5 3 0 1
BITMAP
F8
00
F8
ENDCHAR
STARTCHAR greater
ENCODING 62
SWIDTH 564 0
DWIDTH 5 0
BBX 3 5 0 0
BITMAP
80
40
20
40
80
ENDCHAR
STARTCHAR question
ENCODING 63
SWIDTH 444 0
DWIDTH 4 0
BBX 3 7 0 0
BITMAP
E0
A0
20
40
40
00
40
ENDCHAR
STARTCHAR at
ENCODING 64
SWIDTH 921 0
DWIDTH 9 0
BBX 8 9 0 -2
BITMAP
3C
42
9D
A5
A5
AD
92
40
3E
ENDCHAR
STARTCHAR A
ENCODING 65
SWIDTH 722 0
DWIDTH 8 0
BBX 7 7 0 0
BITMAP
10
38
28
28
7C
44
EE
ENDCHAR
STARTCHAR B
ENCODING 66
SWIDTH 667 0
DWIDTH 6 0
BBX 5 7 0 0
BITMAP
F0
48
48
70
48
48
F0
ENDCHAR
STARTCHAR C
ENCODING 67
SWIDTH 667 0
DWIDTH 7 0
BBX 6 7 0 0
BITMAP
7C
C4
80
80
80
C4
78
ENDCHAR
STARTCHAR D
ENCODING 68
SWIDTH 722 0
DWIDTH 7 0
BBX 6 7 0 0
BITMAP
F8
4C
44
44
44
4C
F8
ENDCHAR
STARTCHAR E
ENCODING 69
SWIDTH 611 0
DWIDTH 6 0
BBX 5 7 0 0
BITMAP
F8
48
40
70
40
48
F8
ENDCHAR
STARTCHAR F
ENCODING 70
SWIDTH 556 0
DWIDTH 6 0
BBX 5 7 0 0
BITMAP
F8
48
40
70
40
40
E0
ENDCHAR
STARTCHAR G
ENCODING 71
SWIDTH 722 0
DWIDTH 7 0
BBX 6 7 0 0
BITMAP
7C
C4
80
9C
84
C4
78
ENDCHAR
STARTCHAR H
ENCODING 72
SWIDTH 722 0
DWIDTH 8 0
BBX 7 7 0 0
BITMAP
EE
44
44
7C
44
44
EE
ENDCHAR
STARTCHAR I
ENCODING 73
SWIDTH 333 0
DWIDTH 4 0
BBX 3 7 0 0
BITMAP
E0
40
40
40
40
40
E0
ENDCHAR
STARTCHAR J
ENCODING 74
SWIDTH 389 0
DWIDTH 4 0
BBX 4 7 0 0
BITMAP
70
20
20
20
20
A0
C0
ENDCHAR
STARTCHAR K
ENCODING 75
SWIDTH 722 0
DWIDTH 7 0
BBX 6 7 0 0
BITMAP
EC
48
50
60
50
48
EC
ENDCHAR
STARTCHAR L
ENCODING 76
SWIDTH 611 0
DWIDTH 6 0
BBX 5 7 0 0
BITMAP
E0
40
40
40
40
48
F8
ENDCHAR
STARTCHAR M
ENCODING 77
SWIDTH 889 0
DWIDTH 10 0
BBX 9 7 0 0
BITMAP
E380
6300
5500
5500
5D00
4900
EB80
ENDCHAR
STARTCHAR N
ENCODING 78
SWIDTH 722 0
DWIDTH 8 0
BBX 7 7 0 0
BITMAP
EE
64
54
54
4C
4C
E4
ENDCHAR
STARTCHAR O
ENCODING 79
SWIDTH 722 0
DWIDTH 7 0
BBX 6 7 0 0
BITMAP
78
CC
84
84
84
CC
78
ENDCHAR
STARTCHAR P
ENCODING 80
SWIDTH 556 0
DWIDTH 6 0
BBX 5 7 0 0
BITMAP
F0
48
48
70
40
40
E0
ENDCHAR
STARTCHAR Q
ENCODING 81
SWIDTH 722 0
DWIDTH 7 0
BBX 6 9 0 -2
BITMAP
78
CC
84
84
84
CC
70
18
0C
ENDCHAR
STARTCHAR R
ENCODING 82
SWIDTH 667 0
DWIDTH 7 0
BBX 6 7 0 0
BITMAP
F0
48
48
70
50
48
EC
ENDCHAR
STARTCHAR S
ENCODING 83
SWIDTH 556 0
DWIDTH 5 0
BBX 4 7 0 0
BITMAP
70
90
C0
60
10
90
E0
ENDCHAR
STARTCHAR T
ENCODING 84
SWIDTH 611 0
DWIDTH 6 0
BBX 5 7 0 0
BITMAP
F8
A8
20
20
20
20
70
ENDCHAR
STARTCHAR U
ENCODING 85
SWIDTH 722 0
DWIDTH 8 0
BBX 7 7 0 0
BITMAP
EE
44
44
44
44
6C
38
ENDCHAR
STARTCHAR V
ENCODING 86
SWIDTH 722 0
DWIDTH 8 0
BBX 7 7 0 0
BITMAP
EE
44
6C
28
28
10
10
ENDCHAR
STARTCHAR W
ENCODING 87
SWIDTH 944 0
DWIDTH 10 0
BBX 11 7 -1 0
BITMAP
EEE0
4440
64C0
2E80
2A80
1100
1100
ENDCHAR
STARTCHAR X
ENCODING 88
SWIDTH 722 0
DWIDTH 8 0
BBX 7 7 0 0
BITMAP
EE
44
28
10
28
44
EE
ENDCHAR
STARTCHAR Y
ENCODING 89
SWIDTH 722 0
DWIDTH 8 0
BBX 7 7 0 0
BITMAP
EE
44
28
38
10
10
38
ENDCHAR
STARTCHAR Z
ENCODING 90
SWIDTH 611 0
DWIDTH 6 0
BBX 5 7 0 0
BITMAP
F8
88
10
20
40
88
F8
ENDCHAR
STARTCHAR bracketleft
ENCODING 91
SWIDTH 333 0
DWIDTH 3 0
BBX 2 9 0 -2
BITMAP
C0
80
80
80
80
80
80
80
C0
ENDCHAR
STARTCHAR backslash
ENCODING 92
SWIDTH 278 0
DWIDTH 3 0
BBX 3 7 0 0
BITMAP
80
80
40
40
40
20
20
ENDCHAR
STARTCHAR bracketright
ENCODING 93
SWIDTH 333 0
DWIDTH 3 0
BBX 2 9 0 -2
BITMAP
C0
40
40
40
40
40
40
40
C0
ENDCHAR
STARTCHAR asciicircum
ENCODING 94
SWIDTH 469 0
DWIDTH 5 0
BBX 3 3 1 4
BITMAP
40
A0
A0
ENDCHAR
STARTCHAR underscore
ENCODING 95
SWIDTH 500 0
DWIDTH 5 0
BBX 5 1 0 -3
BITMAP
F8
ENDCHAR
STARTCHAR grave
ENCODING 96
SWIDTH 333 0
DWIDTH 3 0
BBX 2 2 0 6
BITMAP
80
40
ENDCHAR
STARTCHAR a
ENCODING 97
SWIDTH 444 0
DWIDTH 4 0
BBX 3 5 0 0
BITMAP
C0
20
60
A0
E0
ENDCHAR
STARTCHAR b
ENCODING 98
SWIDTH 500 0
DWIDTH 5 0
BBX 5 7 -1 0
BITMAP
C0
40
70
48
48
48
70
ENDCHAR
STARTCHAR c
ENCODING 99
SWIDTH 444 0
DWIDTH 4 0
BBX 3 5 0 0
BITMAP
60
80
80
80
60
ENDCHAR
STARTCHAR d
ENCODING 100
SWIDTH 500 0
DWIDTH 5 0
BBX 5 7 0 0
BITMAP
30
10
70
90
90
90
68
ENDCHAR
STARTCHAR e
ENCODING 101
SWIDTH 444 0
DWIDTH 4 0
BBX 3 5 0 0
BITMAP
60
A0
C0
80
60
ENDCHAR
STARTCHAR f
ENCODING 102
SWIDTH 333 0
DWIDTH 4 0
BBX 4 7 0 0
BITMAP
30
40
E0
40
40
40
E0
ENDCHAR
STARTCHAR g
ENCODING 103
SWIDTH 500 0
DWIDTH 5 0
BBX 4 7 0 -2
BITMAP
70
A0
A0
40
60
90
E0
ENDCHAR
STARTCHAR h
ENCODING 104
SWIDTH 500 0
DWIDTH 5 0
BBX 6 7 -1 0
BITMAP
C0
40
70
48
48
48
6C
ENDCHAR
STARTCHAR i
ENCODING 105
SWIDTH 278 0
DWIDTH 3 0
BBX 2 7 0 0
BITMAP
40
00
C0
40
40
40
40
ENDCHAR
STARTCHAR j
ENCODING 106
SWIDTH 278 0
DWIDTH 3 0
BBX 3 9 -1 -2
BITMAP
20
00
60
20
20
20
20
20
C0
ENDCHAR
STARTCHAR k
ENCODING 107
SWIDTH 500 0
DWIDTH 5 0
BBX 6 7 -1 0
BITMAP
C0
40
48
50
70
48
4C
ENDCHAR
STARTCHAR l
ENCODING 108
SWIDTH 278 0
DWIDTH 4 0
BBX 3 7 0 0
BITMAP
C0
40
40
40
40
40
E0
ENDCHAR
STARTCHAR m
ENCODING 109
SWIDTH 778 0
DWIDTH 8 0
BBX 8 5 0 0
BITMAP
EC
92
92
92
DB
ENDCHAR
STARTCHAR n
ENCODING 110
SWIDTH 500 0
DWIDTH 5 0
BBX 5 5 0 0
BITMAP
E0
90
90
90
D8
ENDCHAR
STARTCHAR o
ENCODING 111
SWIDTH 500 0
DWIDTH 5 0
BBX 4 5 0 0
BITMAP
60
90
90
90
60
ENDCHAR
STARTCHAR p
ENCODING 112
SWIDTH 500 0
DWIDTH 5 0
BBX 5 8 -1 -3
BITMAP
F0
48
48
48
70
40
40
E0
ENDCHAR
STARTCHAR q
ENCODING 113
SWIDTH 500 0
DWIDTH 5 0
BBX 5 8 0 -3
BITMAP
70
90
90
90
70
10
10
38
ENDCHAR
STARTCHAR r
ENCODING 114
SWIDTH 333 0
DWIDTH 4 0
BBX 3 5 0 0
BITMAP
A0
60
40
40
E0
ENDCHAR
STARTCHAR s
ENCODING 115
SWIDTH 389 0
DWIDTH 4 0
BBX 3 5 0 0
BITMAP
60
80
40
20
E0
ENDCHAR
STARTCHAR t
ENCODING 116
SWIDTH 278 0
DWIDTH 4 0
BBX 4 6 0 0
BITMAP
40
E0
40
40
40
30
ENDCHAR
STARTCHAR u
ENCODING 117
SWIDTH 500 0
DWIDTH 5 0
BBX 5 5 0 0
BITMAP
D8
90
90
90
68
ENDCHAR
STARTCHAR v
ENCODING 118
SWIDTH 500 0
DWIDTH 5 0
BBX 6 5 -1 0
BITMAP
EC
48
28
30
10
ENDCHAR
STARTCHAR w
ENCODING 119
SWIDTH 722 0
DWIDTH 8 0
BBX 9 5 -1 0
BITMAP
ED80
4900
2A00
3600
1400
ENDCHAR
STARTCHAR x
ENCODING 120
SWIDTH 500 0
DWIDTH 6 0
BBX 5 5 0 0
BITMAP
D8
50
20
50
D8
ENDCHAR
STARTCHAR y
ENCODING 121
SWIDTH 500 0
DWIDTH 5 0
BBX 6 7 -1 -2
BITMAP
DC
48
50
30
20
60
C0
ENDCHAR
STARTCHAR z
ENCODING 122
SWIDTH 444 0
DWIDTH 5 0
BBX 4 5 0 0
BITMAP
F0
20
40
90
F0
ENDCHAR
STARTCHAR braceleft
ENCODING 123
SWIDTH 480 0
DWIDTH 4 0
BBX 3 9 0 -2
BITMAP
20
40
40
40
80
40
40
40
20
ENDCHAR
STARTCHAR bar
ENCODING 124
SWIDTH 200 0
DWIDTH 2 0
BBX 1 9 0 -2
BITMAP
80
80
80
80
80
80
80
80
80
ENDCHAR
STARTCHAR braceright
ENCODING 125
SWIDTH 480 0
DWIDTH 4 0
BBX 3 9 0 -2
BITMAP
80
40
40
40
20
40
40
40
80
ENDCHAR
STARTCHAR asciitilde
ENCODING 126
SWIDTH 541 0
DWIDTH 7 0
BBX 6 2 0 2
BITMAP
64
98
ENDCHAR
STARTCHAR space
ENCODING 160
SWIDTH 250 0
DWIDTH 2 0
BBX 1 1 0 0
BITMAP
00
ENDCHAR
STARTCHAR exclamdown
ENCODING 161
SWIDTH 333 0
DWIDTH 3 0
BBX 1 7 1 -2
BITMAP
80
00
80
80
80
80
80
ENDCHAR
STARTCHAR cent
ENCODING 162
SWIDTH 500 0
DWIDTH 5 0
BBX 4 7 0 -1
BITMAP
20
70
90
80
90
60
40
ENDCHAR
STARTCHAR sterling
ENCODING 163
SWIDTH 500 0
DWIDTH 5 0
BBX 5 7 0 0
BITMAP
30
50
40
E0
40
C8
F0
ENDCHAR
STARTCHAR currency
ENCODING 164
SWIDTH 500 0
DWIDTH 5 0
BBX 5 6 0 1
BITMAP
88
70
50
50
70
88
ENDCHAR
STARTCHAR yen
ENCODING 165
SWIDTH 500 0
DWIDTH 5 0
BBX 5 7 0 0
BITMAP
88
50
D8
20
F8
20
70
ENDCHAR
STARTCHAR brokenbar
ENCODING 166
SWIDTH 200 0
DWIDTH 2 0
BBX 1 7 0 0
BITMAP
80
80
80
00
80
80
80
ENDCHAR
STARTCHAR section
ENCODING 167
SWIDTH 500 0
DWIDTH 5 0
BBX 4 9 0 -2
BITMAP
70
90
40
A0
90
50
20
90
E0
ENDCHAR
STARTCHAR dieresis
ENCODING 168
SWIDTH 333 0
DWIDTH 5 0
BBX 3 1 1 5
BITMAP
A0
ENDCHAR
STARTCHAR copyright
ENCODING 169
SWIDTH 760 0
DWIDTH 9 0
BBX 7 7 1 0
BITMAP
38
44
9A
A2
9A
44
38
ENDCHAR
STARTCHAR ordfeminine
ENCODING 170
SWIDTH 276 0
DWIDTH 4 0
BBX 3 5 0 2
BITMAP
C0
20
A0
00
E0
ENDCHAR
STARTCHAR guillemotleft
ENCODING 171
SWIDTH 500 0
DWIDTH 5 0
BBX 4 4 0 1
BITMAP
50
A0
A0
50
ENDCHAR
STARTCHAR logicalnot
ENCODING 172
SWIDTH 564 0
DWIDTH 7 0
BBX 5 2 1 1
BITMAP
F8
08
ENDCHAR
STARTCHAR hyphen
ENCODING 173
SWIDTH 333 0
DWIDTH 4 0
BBX 3 1 0 2
BITMAP
E0
ENDCHAR
STARTCHAR registered
ENCODING 174
SWIDTH 760 0
DWIDTH 9 0
BBX 7 7 1 0
BITMAP
38
44
BA
B2
AA
44
38
ENDCHAR
STARTCHAR macron
ENCODING 175
SWIDTH 333 0
DWIDTH 4 0
BBX 3 1 0 5
BITMAP
E0
ENDCHAR
STARTCHAR degree
ENCODING 176
SWIDTH 400 0
DWIDTH 4 0
BBX 4 4 0 3
BITMAP
60
90
90
60
ENDCHAR
STARTCHAR plusminus
ENCODING 177
SWIDTH 564 0
DWIDTH 6 0
BBX 5 7 0 0
BITMAP
20
20
F8
20
20
00
F8
ENDCHAR
STARTCHAR twosuperior
ENCODING 178
SWIDTH 300 0
DWIDTH 3 0
BBX 3 4 0 3
BITMAP
60
A0
40
E0
ENDCHAR
STARTCHAR threesuperior
ENCODING 179
SWIDTH 300 0
DWIDTH 3 0
BBX 3 4 0 3
BITMAP
E0
40
20
C0
ENDCHAR
STARTCHAR acute
ENCODING 180
SWIDTH 333 0
DWIDTH 3 0
BBX 2 2 0 5
BITMAP
40
80
ENDCHAR
STARTCHAR mu
ENCODING 181
SWIDTH 500 0
DWIDTH 5 0
BBX 5 7 0 -2
BITMAP
90
90
90
90
E8
80
80
ENDCHAR
STARTCHAR paragraph
ENCODING 182
SWIDTH 453 0
DWIDTH 6 0
BBX 6 9 0 -2
BITMAP
7C
E8
E8
E8
68
28
28
28
28
ENDCHAR
STARTCHAR periodcentered
ENCODING 183
SWIDTH 250 0
DWIDTH 2 0
BBX 1 1 0 2
BITMAP
80
ENDCHAR
STARTCHAR cedilla
ENCODING 184
SWIDTH 333 0
DWIDTH 4 0
BBX 3 3 0 -3
BITMAP
40
20
C0
ENDCHAR
STARTCHAR onesuperior
ENCODING 185
SWIDTH 300 0
DWIDTH 3 0
BBX 3 4 0 3
BITMAP
40
C0
40
E0
ENDCHAR
STARTCHAR ordmasculine
ENCODING 186
SWIDTH 310 0
DWIDTH 4 0
BBX 3 5 0 2
BITMAP
40
A0
40
00
E0
ENDCHAR
STARTCHAR guillemotright
ENCODING 187
SWIDTH 500 0
DWIDTH 5 0
BBX 4 4 0 1
BITMAP
A0
50
50
A0
ENDCHAR
STARTCHAR onequarter
ENCODING 188
SWIDTH 750 0
DWIDTH 8 0
BBX 7 7 0 0
BITMAP
44
C8
48
F4
2C
3E
44
ENDCHAR
STARTCHAR onehalf
ENCODING 189
SWIDTH 750 0
DWIDTH 8 0
BBX 7 7 0 0
BITMAP
44
C8
48
F6
2A
24
4E
ENDCHAR
STARTCHAR threequarters
ENCODING 190
SWIDTH 750 0
DWIDTH 8 0
BBX 7 7 0 0
BITMAP
E4
48
28
D4
2C
3E
44
ENDCHAR
STARTCHAR questiondown
ENCODING 191
SWIDTH 444 0
DWIDTH 4 0
BBX 3 7 0 -2
BITMAP
40
00
40
40
80
A0
E0
ENDCHAR
STARTCHAR Agrave
ENCODING 192
SWIDTH 722 0
DWIDTH 8 0
BBX 7 10 0 0
BITMAP
20
10
00
10
38
28
28
7C
44
EE
ENDCHAR
STARTCHAR Aacute
ENCODING 193
SWIDTH 722 0
DWIDTH 8 0
BBX 7 10 0 0
BITMAP
08
10
00
10
38
28
28
7C
44
EE
ENDCHAR
STARTCHAR Acircumflex
ENCODING 194
SWIDTH 722 0
DWIDTH 8 0
BBX 7 10 0 0
BITMAP
10
28
00
10
38
28
28
7C
44
EE
ENDCHAR
STARTCHAR Atilde
ENCODING 195
SWIDTH 722 0
DWIDTH 8 0
BBX 7 10 0 0
BITMAP
14
28
00
10
38
28
28
7C
44
EE
ENDCHAR
STARTCHAR Adieresis
ENCODING 196
SWIDTH 722 0
DWIDTH 8 0
BBX 7 9 0 0
BITMAP
28
00
10
38
28
28
7C
44
EE
ENDCHAR
STARTCHAR Aring
ENCODING 197
SWIDTH 722 0
DWIDTH 8 0
BBX 7 10 0 0
BITMAP
10
28
10
10
38
28
28
7C
44
EE
ENDCHAR
STARTCHAR AE
ENCODING 198
SWIDTH 889 0
DWIDTH 9 0
BBX 8 7 0 0
BITMAP
1F
39
28
2E
78
49
EF
ENDCHAR
STARTCHAR Ccedilla
ENCODING 199
SWIDTH 667 0
DWIDTH 7 0
BBX 6 10 0 -3
BITMAP
7C
C4
80
80
80
C4
78
20
10
60
ENDCHAR
STARTCHAR Egrave
ENCODING 200
SWIDTH 611 0
DWIDTH 6 0
BBX 5 10 0 0
BITMAP
40
20
00
F8
48
40
70
40
48
F8
ENDCHAR
STARTCHAR Eacute
ENCODING 201
SWIDTH 611 0
DWIDTH 6 0
BBX 5 10 0 0
BITMAP
10
20
00
F8
48
40
70
40
48
F8
ENDCHAR
STARTCHAR Ecircumflex
ENCODING 202
SWIDTH 611 0
DWIDTH 6 0
BBX 5 10 0 0
BITMAP
20
50
00
F8
48
40
70
40
48
F8
ENDCHAR
STARTCHAR Edieresis
ENCODING 203
SWIDTH 611 0
DWIDTH 6 0
BBX 5 9 0 0
BITMAP
50
00
F8
48
40
70
40
48
F8
ENDCHAR
STARTCHAR Igrave
ENCODING 204
SWIDTH 333 0
DWIDTH 4 0
BBX 3 10 0 0
BITMAP
80
40
00
E0
40
40
40
40
40
E0
ENDCHAR
STARTCHAR Iacute
ENCODING 205
SWIDTH 333 0
DWIDTH 4 0
BBX 3 10 0 0
BITMAP
20
40
00
E0
40
40
40
40
40
E0
ENDCHAR
STARTCHAR Icircumflex
ENCODING 206
SWIDTH 333 0
DWIDTH 4 0
BBX 3 10 0 0
BITMAP
40
A0
00
E0
40
40
40
40
40
E0
ENDCHAR
STARTCHAR Idieresis
ENCODING 207
SWIDTH 333 0
DWIDTH 4 0
BBX 3 9 0 0
BITMAP
A0
00
E0
40
40
40
40
40
E0
ENDCHAR
STARTCHAR Eth
ENCODING 208
SWIDTH 722 0
DWIDTH 7 0
BBX 6 7 0 0
BITMAP
F8
4C
44
E4
44
4C
F8
ENDCHAR
STARTCHAR Ntilde
ENCODING 209
SWIDTH 722 0
DWIDTH 8 0
BBX 7 10 0 0
BITMAP
14
28
00
CE
64
64
54
54
4C
E4
ENDCHAR
STARTCHAR Ograve
ENCODING 210
SWIDTH 722 0
DWIDTH 7 0
BBX 6 10 0 0
BITMAP
20
10
00
78
CC
84
84
84
CC
78
ENDCHAR
STARTCHAR Oacute
ENCODING 211
SWIDTH 722 0
DWIDTH 7 0
BBX 6 10 0 0
BITMAP
10
20
00
78
CC
84
84
84
CC
78
ENDCHAR
STARTCHAR Ocircumflex
ENCODING 212
SWIDTH 722 0
DWIDTH 7 0
BBX 6 10 0 0
BITMAP
10
28
00
78
CC
84
84
84
CC
78
ENDCHAR
STARTCHAR Otilde
ENCODING 213
SWIDTH 722 0
DWIDTH 7 0
BBX 6 10 0 0
BITMAP
28
50
00
78
CC
84
84
84
CC
78
ENDCHAR
STARTCHAR Odieresis
ENCODING 214
SWIDTH 722 0
DWIDTH 7 0
BBX 6 9 0 0
BITMAP
48
00
78
CC
84
84
84
CC
78
ENDCHAR
STARTCHAR multiply
ENCODING 215
SWIDTH 564 0
DWIDTH 6 0
BBX 5 5 0 0
BITMAP
88
50
20
50
88
ENDCHAR
STARTCHAR Oslash
ENCODING 216
SWIDTH 722 0
DWIDTH 8 0
BBX 8 9 -1 -1
BITMAP
01
3E
66
4A
42
52
66
7C
80
ENDCHAR
STARTCHAR Ugrave
ENCODING 217
SWIDTH 722 0
DWIDTH 8 0
BBX 7 10 0 0
BITMAP
20
10
00
EE
44
44
44
44
6C
38
ENDCHAR
STARTCHAR Uacute
ENCODING 218
SWIDTH 722 0
DWIDTH 8 0
BBX 7 10 0 0
BITMAP
08
10
00
EE
44
44
44
44
6C
38
ENDCHAR
STARTCHAR Ucircumflex
ENCODING 219
SWIDTH 722 0
DWIDTH 8 0
BBX 7 10 0 0
BITMAP
10
28
00
EE
44
44
44
44
6C
38
ENDCHAR
STARTCHAR Udieresis
ENCODING 220
SWIDTH 722 0
DWIDTH 8 0
BBX 7 9 0 0
BITMAP
28
00
EE
44
44
44
44
6C
38
ENDCHAR
STARTCHAR Yacute
ENCODING 221
SWIDTH 722 0
DWIDTH 8 0
BBX 7 10 0 0
BITMAP
08
10
00
C6
44
28
38
10
10
38
ENDCHAR
STARTCHAR Thorn
ENCODING 222
SWIDTH 556 0
DWIDTH 6 0
BBX 5 7 0 0
BITMAP
E0
40
70
48
70
40
E0
ENDCHAR
STARTCHAR germandbls
ENCODING 223
SWIDTH 500 0
DWIDTH 5 0
BBX 4 7 0 0
BITMAP
20
50
50
60
50
50
E0
ENDCHAR
STARTCHAR agrave
ENCODING 224
SWIDTH 444 0
DWIDTH 4 0
BBX 3 8 0 0
BITMAP
80
40
00
C0
20
60
A0
E0
ENDCHAR
STARTCHAR aacute
ENCODING 225
SWIDTH 444 0
DWIDTH 4 0
BBX 3 8 0 0
BITMAP
20
40
00
C0
20
60
A0
E0
ENDCHAR
STARTCHAR acircumflex
ENCODING 226
SWIDTH 444 0
DWIDTH 4 0
BBX 3 8 0 0
BITMAP
40
A0
00
C0
20
60
A0
E0
ENDCHAR
STARTCHAR atilde
ENCODING 227
SWIDTH 444 0
DWIDTH 4 0
BBX 4 8 0 0
BITMAP
50
A0
00
C0
20
60
A0
E0
ENDCHAR
STARTCHAR adieresis
ENCODING 228
SWIDTH 444 0
DWIDTH 4 0
BBX 3 7 0 0
BITMAP
A0
00
C0
20
60
A0
E0
ENDCHAR
STARTCHAR aring
ENCODING 229
SWIDTH 444 0
DWIDTH 4 0
BBX 3 8 0 0
BITMAP
40
A0
40
C0
20
60
A0
E0
ENDCHAR
STARTCHAR ae
ENCODING 230
SWIDTH 667 0
DWIDTH 6 0
BBX 5 5 0 0
BITMAP
D8
28
70
A0
D8
ENDCHAR
STARTCHAR ccedilla
ENCODING 231
SWIDTH 444 0
DWIDTH 4 0
BBX 3 8 0 -3
BITMAP
60
80
80
80
60
40
20
C0
ENDCHAR
STARTCHAR egrave
ENCODING 232
SWIDTH 444 0
DWIDTH 4 0
BBX 3 8 0 0
BITMAP
80
40
00
60
A0
C0
80
60
ENDCHAR
STARTCHAR eacute
ENCODING 233
SWIDTH 444 0
DWIDTH 4 0
BBX 3 8 0 0
BITMAP
20
40
00
60
A0
C0
80
60
ENDCHAR
STARTCHAR ecircumflex
ENCODING 234
SWIDTH 444 0
DWIDTH 4 0
BBX 3 8 0 0
BITMAP
40
A0
00
60
A0
C0
80
60
ENDCHAR
STARTCHAR edieresis
ENCODING 235
SWIDTH 444 0
DWIDTH 4 0
BBX 3 7 0 0
BITMAP
A0
00
60
A0
C0
80
60
ENDCHAR
STARTCHAR igrave
ENCODING 236
SWIDTH 278 0
DWIDTH 3 0
BBX 2 8 0 0
BITMAP
80
40
00
C0
40
40
40
40
ENDCHAR
STARTCHAR iacute
ENCODING 237
SWIDTH 278 0
DWIDTH 3 0
BBX 3 8 0 0
BITMAP
20
40
00
C0
40
40
40
40
ENDCHAR
STARTCHAR icircumflex
ENCODING 238
SWIDTH 278 0
DWIDTH 3 0
BBX 3 8 0 0
BITMAP
40
A0
00
C0
40
40
40
40
ENDCHAR
STARTCHAR idieresis
ENCODING 239
SWIDTH 278 0
DWIDTH 3 0
BBX 3 7 0 0
BITMAP
A0
00
C0
40
40
40
40
ENDCHAR
STARTCHAR eth
ENCODING 240
SWIDTH 500 0
DWIDTH 5 0
BBX 4 8 0 0
BITMAP
40
70
A0
70
90
90
90
60
ENDCHAR
STARTCHAR ntilde
ENCODING 241
SWIDTH 500 0
DWIDTH 5 0
BBX 5 8 0 0
BITMAP
50
A0
00
E0
90
90
90
D8
ENDCHAR
STARTCHAR ograve
ENCODING 242
SWIDTH 500 0
DWIDTH 5 0
BBX 4 8 0 0
BITMAP
40
20
00
60
90
90
90
60
ENDCHAR
STARTCHAR oacute
ENCODING 243
SWIDTH 500 0
DWIDTH 5 0
BBX 4 8 0 0
BITMAP
20
40
00
60
90
90
90
60
ENDCHAR
STARTCHAR ocircumflex
ENCODING 244
SWIDTH 500 0
DWIDTH 5 0
BBX 4 8 0 0
BITMAP
40
A0
00
60
90
90
90
60
ENDCHAR
STARTCHAR otilde
ENCODING 245
SWIDTH 500 0
DWIDTH 5 0
BBX 4 8 0 0
BITMAP
50
A0
00
60
90
90
90
60
ENDCHAR
STARTCHAR odieresis
ENCODING 246
SWIDTH 500 0
DWIDTH 5 0
BBX 4 7 0 0
BITMAP
A0
00
60
90
90
90
60
ENDCHAR
STARTCHAR divide
ENCODING 247
SWIDTH 564 0
DWIDTH 6 0
BBX 5 5 0 0
BITMAP
20
00
F8
00
20
ENDCHAR
STARTCHAR oslash
ENCODING 248
SWIDTH 500 0
DWIDTH 5 0
BBX 6 7 -1 -1
BITMAP
04
38
48
48
48
70
80
ENDCHAR
STARTCHAR ugrave
ENCODING 249
SWIDTH 500 0
DWIDTH 5 0
BBX 5 8 0 0
BITMAP
40
20
00
90
90
90
90
68
ENDCHAR
STARTCHAR uacute
ENCODING 250
SWIDTH 500 0
DWIDTH 5 0
BBX 5 8 0 0
BITMAP
20
40
00
90
90
90
90
68
ENDCHAR
STARTCHAR ucircumflex
ENCODING 251
SWIDTH 500 0
DWIDTH 5 0
BBX 5 8 0 0
BITMAP
20
50
00
90
90
90
90
68
ENDCHAR
STARTCHAR udieresis
ENCODING 252
SWIDTH 500 0
DWIDTH 5 0
BBX 5 7 0 0
BITMAP
50
00
90
90
90
90
68
ENDCHAR
STARTCHAR yacute
ENCODING 253
SWIDTH 500 0
DWIDTH 5 0
BBX 6 10 -1 -2
BITMAP
10
20
00
DC
48
50
30
20
60
C0
ENDCHAR
STARTCHAR thorn
ENCODING 254
SWIDTH 500 0
DWIDTH 5 0
BBX 5 10 -1 -3
BITMAP
C0
40
70
48
48
48
70
40
40
E0
ENDCHAR
STARTCHAR ydieresis
ENCODING 255
SWIDTH 500 0
DWIDTH 5 0
BBX 6 9 -1 -2
BITMAP
50
00
DC
48
50
30
20
60
C0
ENDCHAR
STARTCHAR Amacron
ENCODING 256
SWIDTH 722 0
DWIDTH 8 0
BBX 7 9 0 0
BITMAP
38
00
10
38
28
28
7C
44
EE
ENDCHAR
STARTCHAR amacron
ENCODING 257
SWIDTH 444 0
DWIDTH 4 0
BBX 3 7 0 0
BITMAP
E0
00
C0
20
60
A0
E0
ENDCHAR
STARTCHAR Abreve
ENCODING 258
SWIDTH 722 0
DWIDTH 8 0
BBX 7 10 0 0
BITMAP
28
38
00
10
38
28
28
7C
44
EE
ENDCHAR
STARTCHAR abreve
ENCODING 259
SWIDTH 444 0
DWIDTH 4 0
BBX 3 8 0 0
BITMAP
A0
E0
00
C0
20
60
A0
E0
ENDCHAR
STARTCHAR Aogonek
ENCODING 260
SWIDTH 722 0
DWIDTH 8 0
BBX 7 9 0 -2
BITMAP
10
38
28
28
7C
44
EE
10
18
ENDCHAR
STARTCHAR aogonek
ENCODING 261
SWIDTH 444 0
DWIDTH 4 0
BBX 3 7 0 -2
BITMAP
C0
20
60
A0
E0
40
60
ENDCHAR
STARTCHAR Cacute
ENCODING 262
SWIDTH 667 0
DWIDTH 7 0
BBX 6 10 0 0
BITMAP
10
20
00
7C
C4
80
80
80
C4
78
ENDCHAR
STARTCHAR cacute
ENCODING 263
SWIDTH 444 0
DWIDTH 4 0
BBX 3 8 0 0
BITMAP
20
40
00
60
80
80
80
60
ENDCHAR
STARTCHAR Ccircumflex
ENCODING 264
SWIDTH 667 0
DWIDTH 7 0
BBX 6 10 0 0
BITMAP
10
28
00
7C
C4
80
80
80
C4
78
ENDCHAR
STARTCHAR ccircumflex
ENCODING 265
SWIDTH 444 0
DWIDTH 4 0
BBX 3 8 0 0
BITMAP
40
A0
00
60
80
80
80
60
ENDCHAR
STARTCHAR Cdotaccent
ENCODING 266
SWIDTH 667 0
DWIDTH 7 0
BBX 6 9 0 0
BITMAP
10
00
7C
C4
80
80
80
C4
78
ENDCHAR
STARTCHAR cdotaccent
ENCODING 267
SWIDTH 444 0
DWIDTH 4 0
BBX 3 7 0 0
BITMAP
40
00
60
80
80
80
60
ENDCHAR
STARTCHAR Ccaron
ENCODING 268
SWIDTH 667 0
DWIDTH 7 0
BBX 6 10 0 0
BITMAP
28
10
00
7C
C4
80
80
80
C4
78
ENDCHAR
STARTCHAR ccaron
ENCODING 269
SWIDTH 444 0
DWIDTH 4 0
BBX 3 8 0 0
BITMAP
A0
40
00
60
80
80
80
60
ENDCHAR
STARTCHAR Dcaron
ENCODING 270
SWIDTH 722 0
DWIDTH 7 0
BBX 6 10 0 0
BITMAP
28
10
00
F8
4C
44
44
44
4C
F8
ENDCHAR
STARTCHAR dcaron
ENCODING 271
SWIDTH 808 0
DWIDTH 8 0
BBX 7 7 0 0
BITMAP
36
12
70
90
90
90
68
ENDCHAR
STARTCHAR Dcroat
ENCODING 272
SWIDTH 722 0
DWIDTH 7 0
BBX 6 7 0 0
BITMAP
F8
4C
44
E4
44
4C
F8
ENDCHAR
STARTCHAR dcroat
ENCODING 273
SWIDTH 500 0
DWIDTH 5 0
BBX 5 7 0 0
BITMAP
30
38
70
90
90
90
68
ENDCHAR
STARTCHAR Emacron
ENCODING 274
SWIDTH 611 0
DWIDTH 6 0
BBX 5 9 0 0
BITMAP
70
00
F8
48
40
70
40
48
F8
ENDCHAR
STARTCHAR emacron
ENCODING 275
SWIDTH 444 0
DWIDTH 4 0
BBX 3 7 0 0
BITMAP
E0
00
60
A0
C0
80
60
ENDCHAR
STARTCHAR Ebreve
ENCODING 276
SWIDTH 611 0
DWIDTH 6 0
BBX 5 10 0 0
BITMAP
50
70
00
F8
48
40
70
40
48
F8
ENDCHAR
STARTCHAR ebreve
ENCODING 277
SWIDTH 444 0
DWIDTH 4 0
BBX 3 8 0 0
BITMAP
A0
E0
00
60
A0
C0
80
60
ENDCHAR
STARTCHAR Edotaccent
ENCODING 278
SWIDTH 611 0
DWIDTH 6 0
BBX 5 9 0 0
BITMAP
20
00
F8
48
40
70
40
48
F8
ENDCHAR
STARTCHAR edotaccent
ENCODING 279
SWIDTH 444 0
DWIDTH 4 0
BBX 3 7 0 0
BITMAP
40
00
60
A0
C0
80
60
ENDCHAR
STARTCHAR Eogonek
ENCODING 280
SWIDTH 611 0
DWIDTH 6 0
BBX 5 9 0 -2
BITMAP
F8
48
40
70
40
48
F8
20
30
ENDCHAR
STARTCHAR eogonek
ENCODING 281
SWIDTH 444 0
DWIDTH 4 0
BBX 3 7 0 -2
BITMAP
60
A0
C0
80
60
40
60
ENDCHAR
STARTCHAR Ecaron
ENCODING 282
SWIDTH 611 0
DWIDTH 6 0
BBX 5 10 0 0
BITMAP
50
20
00
F8
48
40
70
40
48
F8
ENDCHAR
STARTCHAR ecaron
ENCODING 283
SWIDTH 444 0
DWIDTH 4 0
BBX 3 8 0 0
BITMAP
A0
40
00
60
A0
C0
80
60
ENDCHAR
STARTCHAR Gcircumflex
ENCODING 284
SWIDTH 722 0
DWIDTH 7 0
BBX 6 10 0 0
BITMAP
10
28
00
7C
C4
80
9C
84
C4
78
ENDCHAR
STARTCHAR gcircumflex
ENCODING 285
SWIDTH 500 0
DWIDTH 5 0
BBX 4 10 0 -2
BITMAP
20
50
00
70
A0
A0
40
60
90
E0
ENDCHAR
STARTCHAR Gbreve
ENCODING 286
SWIDTH 722 0
DWIDTH 7 0
BBX 6 10 0 0
BITMAP
28
38
00
7C
C4
80
9C
84
C4
78
ENDCHAR
STARTCHAR gbreve
ENCODING 287
SWIDTH 500 0
DWIDTH 5 0
BBX 4 10 0 -2
BITMAP
50
70
00
70
A0
A0
40
60
90
E0
ENDCHAR
STARTCHAR Gdotaccent
ENCODING 288
SWIDTH 722 0
DWIDTH 7 0
BBX 6 9 0 0
BITMAP
10
00
7C
C4
80
9C
84
C4
78
ENDCHAR
STARTCHAR gdotaccent
ENCODING 289
SWIDTH 500 0
DWIDTH 5 0
BBX 4 9 0 -2
BITMAP
20
00
70
A0
A0
40
60
90
E0
ENDCHAR
STARTCHAR Gcommaaccent
ENCODING 290
SWIDTH 722 0
DWIDTH 7 0
BBX 6 10 0 -3
BITMAP
7C
C4
80
9C
84
C4
78
00
30
10
ENDCHAR
STARTCHAR gcommaaccent
ENCODING 291
SWIDTH 500 0
DWIDTH 5 0
BBX 4 10 0 -2
BITMAP
40
60
00
70
A0
A0
40
60
90
E0
ENDCHAR
STARTCHAR Hcircumflex
ENCODING 292
SWIDTH 722 0
DWIDTH 8 0
BBX 7 10 0 0
BITMAP
10
28
00
EE
44
44
7C
44
44
EE
ENDCHAR
STARTCHAR hcircumflex
ENCODING 293
SWIDTH 500 0
DWIDTH 5 0
BBX 6 10 -1 0
BITMAP
40
A0
00
C0
40
70
48
48
48
6C
ENDCHAR
STARTCHAR Hbar
ENCODING 294
SWIDTH 722 0
DWIDTH 8 0
BBX 7 7 0 0
BITMAP
EE
FE
44
7C
44
44
EE
ENDCHAR
STARTCHAR hbar
ENCODING 295
SWIDTH 500 0
DWIDTH 5 0
BBX 6 7 -1 0
BITMAP
C0
70
70
48
48
48
6C
ENDCHAR
STARTCHAR Itilde
ENCODING 296
SWIDTH 333 0
DWIDTH 4 0
BBX 4 10 0 0
BITMAP
50
A0
00
E0
40
40
40
40
40
E0
ENDCHAR
STARTCHAR itilde
ENCODING 297
SWIDTH 278 0
DWIDTH 3 0
BBX 4 8 -1 0
BITMAP
50
A0
00
60
20
20
20
20
ENDCHAR
STARTCHAR Imacron
ENCODING 298
SWIDTH 333 0
DWIDTH 4 0
BBX 3 9 0 0
BITMAP
E0
00
E0
40
40
40
40
40
E0
ENDCHAR
STARTCHAR imacron
ENCODING 299
SWIDTH 278 0
DWIDTH 3 0
BBX 3 7 0 0
BITMAP
E0
00
C0
40
40
40
40
ENDCHAR
STARTCHAR Ibreve
ENCODING 300
SWIDTH 333 0
DWIDTH 4 0
BBX 3 10 0 0
BITMAP
A0
E0
00
E0
40
40
40
40
40
E0
ENDCHAR
STARTCHAR ibreve
ENCODING 301
SWIDTH 278 0
DWIDTH 3 0
BBX 3 8 0 0
BITMAP
A0
E0
00
C0
40
40
40
40
ENDCHAR
STARTCHAR Iogonek
ENCODING 302
SWIDTH 333 0
DWIDTH 4 0
BBX 3 9 0 -2
BITMAP
E0
40
40
40
40
40
E0
40
60
ENDCHAR
STARTCHAR iogonek
ENCODING 303
SWIDTH 278 0
DWIDTH 3 0
BBX 3 9 0 -2
BITMAP
40
00
C0
40
40
40
40
40
60
ENDCHAR
STARTCHAR Idotaccent
ENCODING 304
SWIDTH 333 0
DWIDTH 4 0
BBX 3 9 0 0
BITMAP
40
00
E0
40
40
40
40
40
E0
ENDCHAR
STARTCHAR dotlessi
ENCODING 305
SWIDTH 278 0
DWIDTH 3 0
BBX 2 5 0 0
BITMAP
C0
40
40
40
40
ENDCHAR
STARTCHAR IJ
ENCODING 306
SWIDTH 705 0
DWIDTH 8 0
BBX 8 7 0 0
BITMAP
E7
42
42
42
42
4A
EC
ENDCHAR
STARTCHAR ij
ENCODING 307
SWIDTH 542 0
DWIDTH 6 0
BBX 5 9 0 -2
BITMAP
48
00
D8
48
48
48
48
08
30
ENDCHAR
STARTCHAR Jcircumflex
ENCODING 308
SWIDTH 389 0
DWIDTH 4 0
BBX 4 10 0 0
BITMAP
20
50
00
70
20
20
20
20
A0
C0
ENDCHAR
STARTCHAR jcircumflex
ENCODING 309
SWIDTH 278 0
DWIDTH 3 0
BBX 3 10 -1 -2
BITMAP
40
A0
00
60
20
20
20
20
20
C0
ENDCHAR
STARTCHAR Kcommaaccent
ENCODING 310
SWIDTH 722 0
DWIDTH 7 0
BBX 6 10 0 -3
BITMAP
EC
48
50
60
50
48
EC
00
30
10
ENDCHAR
STARTCHAR kcommaaccent
ENCODING 311
SWIDTH 500 0
DWIDTH 5 0
BBX 6 10 -1 -3
BITMAP
C0
40
48
50
70
48
4C
00
30
10
ENDCHAR
STARTCHAR kgreenlandic
ENCODING 312
SWIDTH 500 0
DWIDTH 5 0
BBX 6 5 -1 0
BITMAP
48
50
70
48
4C
ENDCHAR
STARTCHAR Lacute
ENCODING 313
SWIDTH 611 0
DWIDTH 6 0
BBX 5 10 0 0
BITMAP
20
40
00
E0
40
40
40
40
48
F8
ENDCHAR
STARTCHAR lacute
ENCODING 314
SWIDTH 278 0
DWIDTH 4 0
BBX 3 10 0 0
BITMAP
20
40
00
C0
40
40
40
40
40
E0
ENDCHAR
STARTCHAR Lcommaaccent
ENCODING 315
SWIDTH 611 0
DWIDTH 6 0
BBX 5 10 0 -3
BITMAP
E0
40
40
40
40
48
F8
00
30
10
ENDCHAR
STARTCHAR lcommaaccent
ENCODING 316
SWIDTH 278 0
DWIDTH 4 0
BBX 3 10 0 -3
BITMAP
C0
40
40
40
40
40
E0
00
60
20
ENDCHAR
STARTCHAR Lcaron
ENCODING 317
SWIDTH 913 0
DWIDTH 9 0
BBX 8 7 0 0
BITMAP
E3
41
40
40
40
48
F8
ENDCHAR
STARTCHAR lcaron
ENCODING 318
SWIDTH 597 0
DWIDTH 7 0
BBX 6 7 0 0
BITMAP
CC
44
40
40
40
40
E0
ENDCHAR
STARTCHAR Ldot
ENCODING 319
SWIDTH 830 0
DWIDTH 8 0
BBX 7 7 0 0
BITMAP
E0
40
40
40
42
48
F8
ENDCHAR
STARTCHAR ldot
ENCODING 320
SWIDTH 514 0
DWIDTH 6 0
BBX 5 7 0 0
BITMAP
C0
40
40
40
48
40
E0
ENDCHAR
STARTCHAR Lslash
ENCODING 321
SWIDTH 611 0
DWIDTH 6 0
BBX 5 7 0 0
BITMAP
E0
40
60
C0
40
48
F8
ENDCHAR
STARTCHAR lslash
ENCODING 322
SWIDTH 278 0
DWIDTH 4 0
BBX 3 7 0 0
BITMAP
C0
40
60
C0
40
40
E0
ENDCHAR
STARTCHAR Nacute
ENCODING 323
SWIDTH 722 0
DWIDTH 8 0
BBX 7 10 0 0
BITMAP
08
10
00
EE
64
54
54
4C
4C
E4
ENDCHAR
STARTCHAR nacute
ENCODING 324
SWIDTH 500 0
DWIDTH 5 0
BBX 5 8 0 0
BITMAP
20
40
00
E0
90
90
90
D8
ENDCHAR
STARTCHAR Ncommaaccent
ENCODING 325
SWIDTH 722 0
DWIDTH 8 0
BBX 7 10 0 -3
BITMAP
EE
64
54
54
4C
4C
E4
00
30
10
ENDCHAR
STARTCHAR ncommaaccent
ENCODING 326
SWIDTH 500 0
DWIDTH 5 0
BBX 5 8 0 -3
BITMAP
E0
90
90
90
D8
00
60
20
ENDCHAR
STARTCHAR Ncaron
ENCODING 327
SWIDTH 722 0
DWIDTH 8 0
BBX 7 10 0 0
BITMAP
28
10
00
EE
64
54
54
4C
4C
E4
ENDCHAR
STARTCHAR ncaron
ENCODING 328
SWIDTH 500 0
DWIDTH 5 0
BBX 5 8 0 0
BITMAP
A0
40
00
E0
90
90
90
D8
ENDCHAR
STARTCHAR napostrophe
ENCODING 329
SWIDTH 816 0
DWIDTH 8 0
BBX 8 7 0 0
BITMAP
C0
40
1C
12
12
12
1B
ENDCHAR
STARTCHAR Eng
ENCODING 330
SWIDTH 722 0
DWIDTH 8 0
BBX 7 9 0 -2
BITMAP
EE
64
54
54
4C
4C
E4
04
18
ENDCHAR
STARTCHAR eng
ENCODING 331
SWIDTH 500 0
DWIDTH 5 0
BBX 4 7 0 -2
BITMAP
E0
90
90
90
D0
10
60
ENDCHAR
STARTCHAR Omacron
ENCODING 332
SWIDTH 722 0
DWIDTH 7 0
BBX 6 9 0 0
BITMAP
38
00
78
CC
84
84
84
CC
78
ENDCHAR
STARTCHAR omacron
ENCODING 333
SWIDTH 500 0
DWIDTH 5 0
BBX 4 7 0 0
BITMAP
70
00
60
90
90
90
60
ENDCHAR
STARTCHAR Obreve
ENCODING 334
SWIDTH 722 0
DWIDTH 7 0
BBX 6 10 0 0
BITMAP
28
38
00
78
CC
84
84
84
CC
78
ENDCHAR
STARTCHAR obreve
ENCODING 335
SWIDTH 500 0
DWIDTH 5 0
BBX 4 8 0 0
BITMAP
50
70
00
60
90
90
90
60
ENDCHAR
STARTCHAR Ohungarumlaut
ENCODING 336
SWIDTH 722 0
DWIDTH 7 0
BBX 6 10 0 0
BITMAP
28
50
00
78
CC
84
84
84
CC
78
ENDCHAR
STARTCHAR ohungarumlaut
ENCODING 337
SWIDTH 500 0
DWIDTH 5 0
BBX 4 8 0 0
BITMAP
50
A0
00
60
90
90
90
60
ENDCHAR
STARTCHAR OE
ENCODING 338
SWIDTH 889 0
DWIDTH 9 0
BBX 8 7 0 0
BITMAP
7F
C9
88
8E
88
C9
7F
ENDCHAR
STARTCHAR oe
ENCODING 339
SWIDTH 722 0
DWIDTH 7 0
BBX 6 5 0 0
BITMAP
6C
94
98
90
6C
ENDCHAR
STARTCHAR Racute
ENCODING 340
SWIDTH 667 0
DWIDTH 7 0
BBX 6 10 0 0
BITMAP
10
20
00
F0
48
48
70
50
48
EC
ENDCHAR
STARTCHAR racute
ENCODING 341
SWIDTH 333 0
DWIDTH 4 0
BBX 3 8 0 0
BITMAP
20
40
00
A0
60
40
40
E0
ENDCHAR
STARTCHAR Rcommaaccent
ENCODING 342
SWIDTH 667 0
DWIDTH 7 0
BBX 6 10 0 -3
BITMAP
F0
48
48
70
50
48
EC
00
30
10
ENDCHAR
STARTCHAR rcommaaccent
ENCODING 343
SWIDTH 333 0
DWIDTH 4 0
BBX 3 8 0 -3
BITMAP
A0
60
40
40
E0
00
60
20
ENDCHAR
STARTCHAR Rcaron
ENCODING 344
SWIDTH 667 0
DWIDTH 7 0
BBX 6 10 0 0
BITMAP
50
20
00
F0
48
48
70
50
48
EC
ENDCHAR
STARTCHAR rcaron
ENCODING 345
SWIDTH 333 0
DWIDTH 4 0
BBX 3 8 0 0
BITMAP
A0
40
00
A0
60
40
40
E0
ENDCHAR
STARTCHAR Sacute
ENCODING 346
SWIDTH 556 0
DWIDTH 5 0
BBX 4 10 0 0
BITMAP
10
20
00
70
90
C0
60
10
90
E0
ENDCHAR
STARTCHAR sacute
ENCODING 347
SWIDTH 389 0
DWIDTH 4 0
BBX 3 8 0 0
BITMAP
20
40
00
60
80
40
20
E0
ENDCHAR
STARTCHAR Scircumflex
ENCODING 348
SWIDTH 556 0
DWIDTH 5 0
BBX 4 10 0 0
BITMAP
20
50
00
70
90
C0
60
10
90
E0
ENDCHAR
STARTCHAR scircumflex
ENCODING 349
SWIDTH 389 0
DWIDTH 4 0
BBX 3 8 0 0
BITMAP
40
A0
00
60
80
40
20
E0
ENDCHAR
STARTCHAR Scedilla
ENCODING 350
SWIDTH 556 0
DWIDTH 5 0
BBX 4 10 0 -3
BITMAP
70
90
C0
60
10
90
E0
40
20
C0
ENDCHAR
STARTCHAR scedilla
ENCODING 351
SWIDTH 389 0
DWIDTH 4 0
BBX 3 8 0 -3
BITMAP
60
80
40
20
E0
40
20
C0
ENDCHAR
STARTCHAR Scaron
ENCODING 352
SWIDTH 556 0
DWIDTH 5 0
BBX 4 10 0 0
BITMAP
50
20
00
70
90
C0
60
10
90
E0
ENDCHAR
STARTCHAR scaron
ENCODING 353
SWIDTH 389 0
DWIDTH 4 0
BBX 3 8 0 0
BITMAP
A0
40
00
60
80
40
20
E0
ENDCHAR
STARTCHAR Tcommaaccent
ENCODING 354
SWIDTH 611 0
DWIDTH 6 0
BBX 5 10 0 -3
BITMAP
F8
A8
20
20
20
20
70
20
10
60
ENDCHAR
STARTCHAR tcommaaccent
ENCODING 355
SWIDTH 278 0
DWIDTH 4 0
BBX 4 9 0 -3
BITMAP
40
E0
40
40
40
30
20
10
60
ENDCHAR
STARTCHAR Tcaron
ENCODING 356
SWIDTH 611 0
DWIDTH 6 0
BBX 5 10 0 0
BITMAP
50
20
00
F8
A8
20
20
20
20
70
ENDCHAR
STARTCHAR tcaron
ENCODING 357
SWIDTH 597 0
DWIDTH 7 0
BBX 6 7 0 0
BITMAP
0C
44
E0
40
40
40
30
ENDCHAR
STARTCHAR Tbar
ENCODING 358
SWIDTH 611 0
DWIDTH 6 0
BBX 5 7 0 0
BITMAP
F8
A8
20
70
20
20
70
ENDCHAR
STARTCHAR tbar
ENCODING 359
SWIDTH 278 0
DWIDTH 4 0
BBX 4 6 0 0
BITMAP
40
E0
70
40
40
30
ENDCHAR
STARTCHAR Utilde
ENCODING 360
SWIDTH 722 0
DWIDTH 8 0
BBX 7 10 0 0
BITMAP
14
28
00
EE
44
44
44
44
6C
38
ENDCHAR
STARTCHAR utilde
ENCODING 361
SWIDTH 500 0
DWIDTH 5 0
BBX 5 8 0 0
BITMAP
28
50
00
D8
90
90
90
68
ENDCHAR
STARTCHAR Umacron
ENCODING 362
SWIDTH 722 0
DWIDTH 8 0
BBX 7 9 0 0
BITMAP
38
00
EE
44
44
44
44
6C
38
ENDCHAR
STARTCHAR umacron
ENCODING 363
SWIDTH 500 0
DWIDTH 5 0
BBX 5 7 0 0
BITMAP
70
00
D8
90
90
90
68
ENDCHAR
STARTCHAR Ubreve
ENCODING 364
SWIDTH 722 0
DWIDTH 8 0
BBX 7 10 0 0
BITMAP
28
38
00
EE
44
44
44
44
6C
38
ENDCHAR
STARTCHAR ubreve
ENCODING 365
SWIDTH 500 0
DWIDTH 5 0
BBX 5 8 0 0
BITMAP
50
70
00
D8
90
90
90
68
ENDCHAR
STARTCHAR Uring
ENCODING 366
SWIDTH 722 0
DWIDTH 8 0
BBX 7 11 0 0
BITMAP
10
28
10
00
EE
44
44
44
44
6C
38
ENDCHAR
STARTCHAR uring
ENCODING 367
SWIDTH 500 0
DWIDTH 5 0
BBX 5 9 0 0
BITMAP
20
50
20
00
D8
90
90
90
68
ENDCHAR
STARTCHAR Uhungarumlaut
ENCODING 368
SWIDTH 722 0
DWIDTH 8 0
BBX 7 10 0 0
BITMAP
14
28
00
EE
44
44
44
44
6C
38
ENDCHAR
STARTCHAR uhungarumlaut
ENCODING 369
SWIDTH 500 0
DWIDTH 5 0
BBX 5 8 0 0
BITMAP
28
50
00
D8
90
90
90
68
ENDCHAR
STARTCHAR Uogonek
ENCODING 370
SWIDTH 722 0
DWIDTH 8 0
BBX 7 9 0 -2
BITMAP
EE
44
44
44
44
6C
38
10
18
ENDCHAR
STARTCHAR uogonek
ENCODING 371
SWIDTH 500 0
DWIDTH 5 0
BBX 5 7 0 -2
BITMAP
D8
90
90
90
68
20
30
ENDCHAR
STARTCHAR Wcircumflex
ENCODING 372
SWIDTH 944 0
DWIDTH 10 0
BBX 11 10 -1 0
BITMAP
0400
0A00
0000
EEE0
4440
64C0
2E80
2A80
1100
1100
ENDCHAR
STARTCHAR wcircumflex
ENCODING 373
SWIDTH 722 0
DWIDTH 8 0
BBX 9 8 -1 0
BITMAP
0800
1400
0000
ED80
4900
2A00
3600
1400
ENDCHAR
STARTCHAR Ycircumflex
ENCODING 374
SWIDTH 722 0
DWIDTH 8 0
BBX 7 10 0 0
BITMAP
10
28
00
EE
44
28
38
10
10
38
ENDCHAR
STARTCHAR ycircumflex
ENCODING 375
SWIDTH 500 0
DWIDTH 5 0
BBX 6 10 -1 -2
BITMAP
10
28
00
DC
48
50
30
20
60
C0
ENDCHAR
STARTCHAR Ydieresis
ENCODING 376
SWIDTH 722 0
DWIDTH 8 0
BBX 7 9 0 0
BITMAP
28
00
EE
44
28
38
10
10
38
ENDCHAR
STARTCHAR Zacute
ENCODING 377
SWIDTH 611 0
DWIDTH 6 0
BBX 5 10 0 0
BITMAP
10
20
00
F8
88
10
20
40
88
F8
ENDCHAR
STARTCHAR zacute
ENCODING 378
SWIDTH 444 0
DWIDTH 5 0
BBX 4 8 0 0
BITMAP
20
40
00
F0
20
40
90
F0
ENDCHAR
STARTCHAR Zdotaccent
ENCODING 379
SWIDTH 611 0
DWIDTH 6 0
BBX 5 9 0 0
BITMAP
20
00
F8
88
10
20
40
88
F8
ENDCHAR
STARTCHAR zdotaccent
ENCODING 380
SWIDTH 444 0
DWIDTH 5 0
BBX 4 7 0 0
BITMAP
20
00
F0
20
40
90
F0
ENDCHAR
STARTCHAR Zcaron
ENCODING 381
SWIDTH 611 0
DWIDTH 6 0
BBX 5 10 0 0
BITMAP
50
20
00
F8
88
10
20
40
88
F8
ENDCHAR
STARTCHAR zcaron
ENCODING 382
SWIDTH 444 0
DWIDTH 5 0
BBX 4 8 0 0
BITMAP
A0
40
00
F0
20
40
90
F0
ENDCHAR
STARTCHAR uni0186
ENCODING 390
SWIDTH 667 0
DWIDTH 7 0
BBX 6 7 0 0
BITMAP
78
8C
04
04
04
8C
F8
ENDCHAR
STARTCHAR uni0189
ENCODING 393
SWIDTH 722 0
DWIDTH 7 0
BBX 6 7 0 0
BITMAP
F8
4C
44
E4
44
4C
F8
ENDCHAR
STARTCHAR uni018E
ENCODING 398
SWIDTH 611 0
DWIDTH 6 0
BBX 5 7 0 0
BITMAP
F8
90
10
70
10
90
F8
ENDCHAR
STARTCHAR florin
ENCODING 402
SWIDTH 500 0
DWIDTH 5 0
BBX 5 9 0 -2
BITMAP
18
20
70
20
20
20
20
20
C0
ENDCHAR
STARTCHAR uni0197
ENCODING 407
SWIDTH 333 0
DWIDTH 4 0
BBX 3 7 0 0
BITMAP
E0
40
40
E0
40
40
E0
ENDCHAR
STARTCHAR uni019A
ENCODING 410
SWIDTH 278 0
DWIDTH 4 0
BBX 3 7 0 0
BITMAP
C0
40
40
E0
40
40
E0
ENDCHAR
STARTCHAR uni019D
ENCODING 413
SWIDTH 722 0
DWIDTH 8 0
BBX 8 9 -1 -2
BITMAP
77
32
2A
2A
26
26
22
20
C0
ENDCHAR
STARTCHAR uni019F
ENCODING 415
SWIDTH 722 0
DWIDTH 7 0
BBX 6 7 0 0
BITMAP
78
CC
84
FC
84
CC
78
ENDCHAR
STARTCHAR Ohorn
ENCODING 416
SWIDTH 722 0
DWIDTH 7 0
BBX 8 7 0 0
BITMAP
7B
CD
84
84
84
CC
78
ENDCHAR
STARTCHAR ohorn
ENCODING 417
SWIDTH 500 0
DWIDTH 5 0
BBX 6 5 0 0
BITMAP
6C
94
90
90
60
ENDCHAR
STARTCHAR uni01A7
ENCODING 423
SWIDTH 556 0
DWIDTH 5 0
BBX 4 7 0 0
BITMAP
E0
90
30
60
80
90
70
ENDCHAR
STARTCHAR uni01A8
ENCODING 424
SWIDTH 389 0
DWIDTH 4 0
BBX 3 5 0 0
BITMAP
C0
20
40
80
E0
ENDCHAR
STARTCHAR uni01A9
ENCODING 425
SWIDTH 592 0
DWIDTH 6 0
BBX 5 7 0 0
BITMAP
F8
88
40
20
40
88
F8
ENDCHAR
STARTCHAR uni01AE
ENCODING 430
SWIDTH 611 0
DWIDTH 6 0
BBX 5 9 0 -2
BITMAP
F8
A8
20
20
20
20
20
20
18
ENDCHAR
STARTCHAR Uhorn
ENCODING 431
SWIDTH 722 0
DWIDTH 8 0
BBX 9 7 0 0
BITMAP
EF80
4480
4400
4400
4400
6C00
3800
ENDCHAR
STARTCHAR uhorn
ENCODING 432
SWIDTH 500 0
DWIDTH 5 0
BBX 7 5 0 0
BITMAP
DE
92
90
90
68
ENDCHAR
STARTCHAR uni01B1
ENCODING 433
SWIDTH 768 0
DWIDTH 9 0
BBX 8 7 0 0
BITMAP
E7
A5
66
42
42
66
3C
ENDCHAR
STARTCHAR uni01B5
ENCODING 437
SWIDTH 611 0
DWIDTH 6 0
BBX 5 7 0 0
BITMAP
F8
88
10
70
40
88
F8
ENDCHAR
STARTCHAR uni01B6
ENCODING 438
SWIDTH 444 0
DWIDTH 5 0
BBX 4 5 0 0
BITMAP
F0
20
70
90
F0
ENDCHAR
STARTCHAR uni01BB
ENCODING 443
SWIDTH 500 0
DWIDTH 5 0
BBX 4 7 0 0
BITMAP
60
90
10
F0
20
40
F0
ENDCHAR
STARTCHAR uni01BC
ENCODING 444
SWIDTH 500 0
DWIDTH 5 0
BBX 4 7 0 0
BITMAP
70
40
E0
10
10
10
E0
ENDCHAR
STARTCHAR uni01C0
ENCODING 448
SWIDTH 200 0
DWIDTH 2 0
BBX 1 9 0 -2
BITMAP
80
80
80
80
80
80
80
80
80
ENDCHAR
STARTCHAR uni01C2
ENCODING 450
SWIDTH 564 0
DWIDTH 6 0
BBX 5 9 0 -2
BITMAP
20
20
20
F8
20
F8
20
20
20
ENDCHAR
STARTCHAR uni01C3
ENCODING 451
SWIDTH 333 0
DWIDTH 3 0
BBX 1 7 1 0
BITMAP
80
80
80
80
80
00
80
ENDCHAR
STARTCHAR uni01CD
ENCODING 461
SWIDTH 722 0
DWIDTH 8 0
BBX 7 10 0 0
BITMAP
28
10
00
10
38
28
28
7C
44
EE
ENDCHAR
STARTCHAR uni01CE
ENCODING 462
SWIDTH 444 0
DWIDTH 4 0
BBX 3 8 0 0
BITMAP
A0
40
00
C0
20
60
A0
E0
ENDCHAR
STARTCHAR uni01CF
ENCODING 463
SWIDTH 333 0
DWIDTH 4 0
BBX 3 10 0 0
BITMAP
A0
40
00
E0
40
40
40
40
40
E0
ENDCHAR
STARTCHAR uni01D0
ENCODING 464
SWIDTH 278 0
DWIDTH 3 0
BBX 3 8 0 0
BITMAP
A0
40
00
C0
40
40
40
40
ENDCHAR
STARTCHAR uni01D1
ENCODING 465
SWIDTH 722 0
DWIDTH 7 0
BBX 6 10 0 0
BITMAP
28
10
00
78
CC
84
84
84
CC
78
ENDCHAR
STARTCHAR uni01D2
ENCODING 466
SWIDTH 500 0
DWIDTH 5 0
BBX 4 8 0 0
BITMAP
50
20
00
60
90
90
90
60
ENDCHAR
STARTCHAR uni01D3
ENCODING 467
SWIDTH 722 0
DWIDTH 8 0
BBX 7 10 0 0
BITMAP
28
10
00
EE
44
44
44
44
6C
38
ENDCHAR
STARTCHAR uni01D4
ENCODING 468
SWIDTH 500 0
DWIDTH 5 0
BBX 5 8 0 0
BITMAP
50
20
00
D8
90
90
90
68
ENDCHAR
STARTCHAR uni01D5
ENCODING 469
SWIDTH 722 0
DWIDTH 8 0
BBX 7 11 0 0
BITMAP
38
00
28
00
EE
44
44
44
44
6C
38
ENDCHAR
STARTCHAR uni01D6
ENCODING 470
SWIDTH 500 0
DWIDTH 5 0
BBX 5 9 0 0
BITMAP
70
00
50
00
90
90
90
90
68
ENDCHAR
STARTCHAR uni01D7
ENCODING 471
SWIDTH 722 0
DWIDTH 8 0
BBX 7 12 0 0
BITMAP
08
10
00
28
00
EE
44
44
44
44
6C
38
ENDCHAR
STARTCHAR uni01D8
ENCODING 472
SWIDTH 500 0
DWIDTH 5 0
BBX 5 10 0 0
BITMAP
10
20
00
50
00
90
90
90
90
68
ENDCHAR
STARTCHAR uni01D9
ENCODING 473
SWIDTH 722 0
DWIDTH 8 0
BBX 7 12 0 0
BITMAP
28
10
00
28
00
EE
44
44
44
44
6C
38
ENDCHAR
STARTCHAR uni01DA
ENCODING 474
SWIDTH 500 0
DWIDTH 5 0
BBX 5 10 0 0
BITMAP
50
20
00
50
00
90
90
90
90
68
ENDCHAR
STARTCHAR uni01DB
ENCODING 475
SWIDTH 722 0
DWIDTH 8 0
BBX 7 12 0 0
BITMAP
20
10
00
28
00
EE
44
44
44
44
6C
38
ENDCHAR
STARTCHAR uni01DC
ENCODING 476
SWIDTH 500 0
DWIDTH 5 0
BBX 5 10 0 0
BITMAP
40
20
00
50
00
90
90
90
90
68
ENDCHAR
STARTCHAR uni01DD
ENCODING 477
SWIDTH 444 0
DWIDTH 4 0
BBX 3 5 0 0
BITMAP
C0
20
60
A0
C0
ENDCHAR
STARTCHAR uni01DE
ENCODING 478
SWIDTH 722 0
DWIDTH 8 0
BBX 7 11 0 0
BITMAP
38
00
28
00
10
38
28
28
7C
44
EE
ENDCHAR
STARTCHAR uni01DF
ENCODING 479
SWIDTH 444 0
DWIDTH 4 0
BBX 3 9 0 0
BITMAP
E0
00
A0
00
C0
20
60
A0
E0
ENDCHAR
STARTCHAR uni01E0
ENCODING 480
SWIDTH 722 0
DWIDTH 8 0
BBX 7 11 0 0
BITMAP
38
00
10
00
10
38
28
28
7C
44
EE
ENDCHAR
STARTCHAR uni01E1
ENCODING 481
SWIDTH 444 0
DWIDTH 4 0
BBX 3 9 0 0
BITMAP
E0
00
40
00
C0
20
60
A0
E0
ENDCHAR
STARTCHAR uni01E2
ENCODING 482
SWIDTH 889 0
DWIDTH 9 0
BBX 8 9 0 0
BITMAP
1C
00
1F
39
28
2E
78
49
EF
ENDCHAR
STARTCHAR uni01E3
ENCODING 483
SWIDTH 667 0
DWIDTH 6 0
BBX 5 7 0 0
BITMAP
70
00
D8
28
70
A0
D8
ENDCHAR
STARTCHAR uni01E4
ENCODING 484
SWIDTH 722 0
DWIDTH 7 0
BBX 6 7 0 0
BITMAP
7C
C4
80
9C
9C
C4
78
ENDCHAR
STARTCHAR uni01E5
ENCODING 485
SWIDTH 500 0
DWIDTH 5 0
BBX 4 7 0 -2
BITMAP
70
A0
A0
40
60
F0
E0
ENDCHAR
STARTCHAR Gcaron
ENCODING 486
SWIDTH 722 0
DWIDTH 7 0
BBX 6 10 0 0
BITMAP
28
10
00
7C
C4
80
9C
84
C4
78
ENDCHAR
STARTCHAR gcaron
ENCODING 487
SWIDTH 500 0
DWIDTH 5 0
BBX 4 10 0 -2
BITMAP
50
20
00
70
A0
A0
40
60
90
E0
ENDCHAR
STARTCHAR uni01E8
ENCODING 488
SWIDTH 722 0
DWIDTH 7 0
BBX 6 10 0 0
BITMAP
50
20
00
EC
48
50
60
50
48
EC
ENDCHAR
STARTCHAR uni01E9
ENCODING 489
SWIDTH 500 0
DWIDTH 5 0
BBX 6 10 -1 0
BITMAP
A0
40
00
C0
40
48
50
70
48
4C
ENDCHAR
STARTCHAR uni01EA
ENCODING 490
SWIDTH 722 0
DWIDTH 7 0
BBX 6 9 0 -2
BITMAP
78
CC
84
84
84
CC
78
20
30
ENDCHAR
STARTCHAR uni01EB
ENCODING 491
SWIDTH 500 0
DWIDTH 5 0
BBX 4 7 0 -2
BITMAP
60
90
90
90
60
40
60
ENDCHAR
STARTCHAR uni01EC
ENCODING 492
SWIDTH 722 0
DWIDTH 7 0
BBX 6 11 0 -2
BITMAP
38
00
78
CC
84
84
84
CC
78
20
30
ENDCHAR
STARTCHAR uni01ED
ENCODING 493
SWIDTH 500 0
DWIDTH 5 0
BBX 4 9 0 -2
BITMAP
70
00
60
90
90
90
60
40
60
ENDCHAR
STARTCHAR uni01F0
ENCODING 496
SWIDTH 278 0
DWIDTH 3 0
BBX 3 10 -1 -2
BITMAP
A0
40
00
60
20
20
20
20
20
C0
ENDCHAR
STARTCHAR uni01F4
ENCODING 500
SWIDTH 722 0
DWIDTH 7 0
BBX 6 10 0 0
BITMAP
10
20
00
7C
C4
80
9C
84
C4
78
ENDCHAR
STARTCHAR uni01F5
ENCODING 501
SWIDTH 500 0
DWIDTH 5 0
BBX 4 10 0 -2
BITMAP
20
40
00
70
A0
A0
40
60
90
E0
ENDCHAR
STARTCHAR uni01F8
ENCODING 504
SWIDTH 722 0
DWIDTH 8 0
BBX 7 10 0 0
BITMAP
20
10
00
EE
64
54
54
4C
4C
E4
ENDCHAR
STARTCHAR uni01F9
ENCODING 505
SWIDTH 500 0
DWIDTH 5 0
BBX 5 8 0 0
BITMAP
40
20
00
E0
90
90
90
D8
ENDCHAR
STARTCHAR Aringacute
ENCODING 506
SWIDTH 722 0
DWIDTH 8 0
BBX 7 13 0 0
BITMAP
08
10
00
10
28
10
10
38
28
28
7C
44
EE
ENDCHAR
STARTCHAR aringacute
ENCODING 507
SWIDTH 444 0
DWIDTH 4 0
BBX 3 11 0 0
BITMAP
20
40
00
40
A0
40
C0
20
60
A0
E0
ENDCHAR
STARTCHAR AEacute
ENCODING 508
SWIDTH 889 0
DWIDTH 9 0
BBX 8 10 0 0
BITMAP
04
08
00
1F
39
28
2E
78
49
EF
ENDCHAR
STARTCHAR aeacute
ENCODING 509
SWIDTH 667 0
DWIDTH 6 0
BBX 5 8 0 0
BITMAP
10
20
00
D8
28
70
A0
D8
ENDCHAR
STARTCHAR Oslashacute
ENCODING 510
SWIDTH 722 0
DWIDTH 8 0
BBX 8 12 -1 -1
BITMAP
04
08
00
01
3E
66
4A
42
52
66
7C
80
ENDCHAR
STARTCHAR oslashacute
ENCODING 511
SWIDTH 500 0
DWIDTH 5 0
BBX 6 10 -1 -1
BITMAP
08
10
00
04
38
48
48
48
70
80
ENDCHAR
STARTCHAR uni0200
ENCODING 512
SWIDTH 722 0
DWIDTH 8 0
BBX 7 10 0 0
BITMAP
50
28
00
10
38
28
28
7C
44
EE
ENDCHAR
STARTCHAR uni0201
ENCODING 513
SWIDTH 444 0
DWIDTH 4 0
BBX 4 8 -1 0
BITMAP
A0
50
00
60
10
30
50
70
ENDCHAR
STARTCHAR uni0202
ENCODING 514
SWIDTH 722 0
DWIDTH 8 0
BBX 7 10 0 0
BITMAP
38
28
00
10
38
28
28
7C
44
EE
ENDCHAR
STARTCHAR uni0203
ENCODING 515
SWIDTH 444 0
DWIDTH 4 0
BBX 3 8 0 0
BITMAP
E0
A0
00
C0
20
60
A0
E0
ENDCHAR
STARTCHAR uni0204
ENCODING 516
SWIDTH 611 0
DWIDTH 6 0
BBX 5 10 0 0
BITMAP
A0
50
00
F8
48
40
70
40
48
F8
ENDCHAR
STARTCHAR uni0205
ENCODING 517
SWIDTH 444 0
DWIDTH 4 0
BBX 4 8 -1 0
BITMAP
A0
50
00
30
50
60
40
30
ENDCHAR
STARTCHAR uni0206
ENCODING 518
SWIDTH 611 0
DWIDTH 6 0
BBX 5 10 0 0
BITMAP
70
50
00
F8
48
40
70
40
48
F8
ENDCHAR
STARTCHAR uni0207
ENCODING 519
SWIDTH 444 0
DWIDTH 4 0
BBX 3 8 0 0
BITMAP
E0
A0
00
60
A0
C0
80
60
ENDCHAR
STARTCHAR uni0208
ENCODING 520
SWIDTH 333 0
DWIDTH 4 0
BBX 4 10 -1 0
BITMAP
A0
50
00
70
20
20
20
20
20
70
ENDCHAR
STARTCHAR uni0209
ENCODING 521
SWIDTH 278 0
DWIDTH 3 0
BBX 4 8 -1 0
BITMAP
A0
50
00
60
20
20
20
20
ENDCHAR
STARTCHAR uni020A
ENCODING 522
SWIDTH 333 0
DWIDTH 4 0
BBX 3 10 0 0
BITMAP
E0
A0
00
E0
40
40
40
40
40
E0
ENDCHAR
STARTCHAR uni020B
ENCODING 523
SWIDTH 278 0
DWIDTH 3 0
BBX 3 8 0 0
BITMAP
E0
A0
00
C0
40
40
40
40
ENDCHAR
STARTCHAR uni020C
ENCODING 524
SWIDTH 722 0
DWIDTH 7 0
BBX 6 10 0 0
BITMAP
50
28
00
78
CC
84
84
84
CC
78
ENDCHAR
STARTCHAR uni020D
ENCODING 525
SWIDTH 500 0
DWIDTH 5 0
BBX 4 8 0 0
BITMAP
A0
50
00
60
90
90
90
60
ENDCHAR
STARTCHAR uni020E
ENCODING 526
SWIDTH 722 0
DWIDTH 7 0
BBX 6 10 0 0
BITMAP
38
28
00
78
CC
84
84
84
CC
78
ENDCHAR
STARTCHAR uni020F
ENCODING 527
SWIDTH 500 0
DWIDTH 5 0
BBX 4 8 0 0
BITMAP
70
50
00
60
90
90
90
60
ENDCHAR
STARTCHAR uni0210
ENCODING 528
SWIDTH 667 0
DWIDTH 7 0
BBX 6 10 0 0
BITMAP
A0
50
00
F0
48
48
70
50
48
EC
ENDCHAR
STARTCHAR uni0211
ENCODING 529
SWIDTH 333 0
DWIDTH 4 0
BBX 4 8 -1 0
BITMAP
A0
50
00
50
30
20
20
70
ENDCHAR
STARTCHAR uni0212
ENCODING 530
SWIDTH 667 0
DWIDTH 7 0
BBX 6 10 0 0
BITMAP
70
50
00
F0
48
48
70
50
48
EC
ENDCHAR
STARTCHAR uni0213
ENCODING 531
SWIDTH 333 0
DWIDTH 4 0
BBX 3 8 0 0
BITMAP
E0
A0
00
A0
60
40
40
E0
ENDCHAR
STARTCHAR uni0214
ENCODING 532
SWIDTH 722 0
DWIDTH 8 0
BBX 7 10 0 0
BITMAP
50
28
00
EE
44
44
44
44
6C
38
ENDCHAR
STARTCHAR uni0215
ENCODING 533
SWIDTH 500 0
DWIDTH 5 0
BBX 5 8 0 0
BITMAP
A0
50
00
D8
90
90
90
68
ENDCHAR
STARTCHAR uni0216
ENCODING 534
SWIDTH 722 0
DWIDTH 8 0
BBX 7 10 0 0
BITMAP
38
28
00
EE
44
44
44
44
6C
38
ENDCHAR
STARTCHAR uni0217
ENCODING 535
SWIDTH 500 0
DWIDTH 5 0
BBX 5 8 0 0
BITMAP
70
50
00
D8
90
90
90
68
ENDCHAR
STARTCHAR Scommaaccent
ENCODING 536
SWIDTH 556 0
DWIDTH 5 0
BBX 4 10 0 -3
BITMAP
70
90
C0
60
10
90
E0
00
60
20
ENDCHAR
STARTCHAR scommaaccent
ENCODING 537
SWIDTH 389 0
DWIDTH 4 0
BBX 3 8 0 -3
BITMAP
60
80
40
20
E0
00
60
20
ENDCHAR
STARTCHAR Tcommaaccent
ENCODING 538
SWIDTH 611 0
DWIDTH 6 0
BBX 5 10 0 -3
BITMAP
F8
A8
20
20
20
20
70
00
30
10
ENDCHAR
STARTCHAR tcommaaccent
ENCODING 539
SWIDTH 278 0
DWIDTH 4 0
BBX 4 9 0 -3
BITMAP
40
E0
40
40
40
30
00
60
20
ENDCHAR
STARTCHAR uni021E
ENCODING 542
SWIDTH 722 0
DWIDTH 8 0
BBX 7 10 0 0
BITMAP
28
10
00
EE
44
44
7C
44
44
EE
ENDCHAR
STARTCHAR uni021F
ENCODING 543
SWIDTH 500 0
DWIDTH 5 0
BBX 6 10 -1 0
BITMAP
A0
40
00
C0
40
70
48
48
48
6C
ENDCHAR
STARTCHAR uni0226
ENCODING 550
SWIDTH 722 0
DWIDTH 8 0
BBX 7 9 0 0
BITMAP
10
00
10
38
28
28
7C
44
EE
ENDCHAR
STARTCHAR uni0227
ENCODING 551
SWIDTH 444 0
DWIDTH 4 0
BBX 3 7 0 0
BITMAP
40
00
C0
20
60
A0
E0
ENDCHAR
STARTCHAR uni0228
ENCODING 552
SWIDTH 611 0
DWIDTH 6 0
BBX 5 10 0 -3
BITMAP
F8
48
40
70
40
48
F8
20
10
60
ENDCHAR
STARTCHAR uni0229
ENCODING 553
SWIDTH 444 0
DWIDTH 4 0
BBX 3 8 0 -3
BITMAP
60
A0
C0
80
60
40
20
C0
ENDCHAR
STARTCHAR uni022A
ENCODING 554
SWIDTH 722 0
DWIDTH 7 0
BBX 6 11 0 0
BITMAP
38
00
48
00
78
CC
84
84
84
CC
78
ENDCHAR
STARTCHAR uni022B
ENCODING 555
SWIDTH 500 0
DWIDTH 5 0
BBX 4 9 0 0
BITMAP
E0
00
A0
00
60
90
90
90
60
ENDCHAR
STARTCHAR uni022C
ENCODING 556
SWIDTH 722 0
DWIDTH 7 0
BBX 6 12 0 0
BITMAP
38
00
28
50
00
78
CC
84
84
84
CC
78
ENDCHAR
STARTCHAR uni022D
ENCODING 557
SWIDTH 500 0
DWIDTH 5 0
BBX 4 10 0 0
BITMAP
70
00
50
A0
00
60
90
90
90
60
ENDCHAR
STARTCHAR uni022E
ENCODING 558
SWIDTH 722 0
DWIDTH 7 0
BBX 6 9 0 0
BITMAP
10
00
78
CC
84
84
84
CC
78
ENDCHAR
STARTCHAR uni022F
ENCODING 559
SWIDTH 500 0
DWIDTH 5 0
BBX 4 7 0 0
BITMAP
20
00
60
90
90
90
60
ENDCHAR
STARTCHAR uni0230
ENCODING 560
SWIDTH 722 0
DWIDTH 7 0
BBX 6 11 0 0
BITMAP
38
00
10
00
78
CC
84
84
84
CC
78
ENDCHAR
STARTCHAR uni0231
ENCODING 561
SWIDTH 500 0
DWIDTH 5 0
BBX 4 9 0 0
BITMAP
70
00
20
00
60
90
90
90
60
ENDCHAR
STARTCHAR uni0232
ENCODING 562
SWIDTH 722 0
DWIDTH 8 0
BBX 7 9 0 0
BITMAP
38
00
EE
44
28
38
10
10
38
ENDCHAR
STARTCHAR uni0233
ENCODING 563
SWIDTH 500 0
DWIDTH 5 0
BBX 6 9 -1 -2
BITMAP
38
00
DC
48
50
30
20
60
C0
ENDCHAR
STARTCHAR uni0250
ENCODING 592
SWIDTH 444 0
DWIDTH 4 0
BBX 3 5 0 0
BITMAP
E0
A0
C0
80
60
ENDCHAR
STARTCHAR uni0254
ENCODING 596
SWIDTH 444 0
DWIDTH 4 0
BBX 3 5 0 0
BITMAP
C0
20
20
20
C0
ENDCHAR
STARTCHAR uni0258
ENCODING 600
SWIDTH 444 0
DWIDTH 4 0
BBX 3 5 0 0
BITMAP
C0
A0
60
20
C0
ENDCHAR
STARTCHAR uni0259
ENCODING 601
SWIDTH 444 0
DWIDTH 4 0
BBX 3 5 0 0
BITMAP
C0
20
60
A0
C0
ENDCHAR
STARTCHAR uni025F
ENCODING 607
SWIDTH 333 0
DWIDTH 4 0
BBX 4 7 0 -2
BITMAP
70
20
20
20
70
20
C0
ENDCHAR
STARTCHAR uni0265
ENCODING 613
SWIDTH 500 0
DWIDTH 5 0
BBX 6 7 -1 -2
BITMAP
D8
48
48
48
38
08
0C
ENDCHAR
STARTCHAR uni0275
ENCODING 629
SWIDTH 500 0
DWIDTH 5 0
BBX 4 5 0 0
BITMAP
60
90
F0
90
60
ENDCHAR
STARTCHAR uni0279
ENCODING 633
SWIDTH 333 0
DWIDTH 4 0
BBX 3 5 0 0
BITMAP
E0
40
40
C0
A0
ENDCHAR
STARTCHAR uni0287
ENCODING 647
SWIDTH 278 0
DWIDTH 4 0
BBX 4 6 0 0
BITMAP
C0
20
20
20
70
20
ENDCHAR
STARTCHAR uni0288
ENCODING 648
SWIDTH 278 0
DWIDTH 4 0
BBX 4 8 0 -2
BITMAP
40
E0
40
40
40
40
40
30
ENDCHAR
STARTCHAR uni0289
ENCODING 649
SWIDTH 500 0
DWIDTH 5 0
BBX 5 5 0 0
BITMAP
D8
90
F8
90
68
ENDCHAR
STARTCHAR uni028C
ENCODING 652
SWIDTH 500 0
DWIDTH 5 0
BBX 6 5 -1 0
BITMAP
20
30
50
48
DC
ENDCHAR
STARTCHAR uni028D
ENCODING 653
SWIDTH 722 0
DWIDTH 8 0
BBX 9 5 -1 0
BITMAP
1400
3600
2A00
4900
DB80
ENDCHAR
STARTCHAR uni028E
ENCODING 654
SWIDTH 500 0
DWIDTH 5 0
BBX 6 7 -1 0
BITMAP
0C
18
10
30
28
48
EC
ENDCHAR
STARTCHAR uni029E
ENCODING 670
SWIDTH 500 0
DWIDTH 5 0
BBX 6 7 -1 -2
BITMAP
C8
48
38
28
48
08
0C
ENDCHAR
STARTCHAR uni02B9
ENCODING 697
SWIDTH 247 0
DWIDTH 3 0
BBX 3 3 0 5
BITMAP
20
40
80
ENDCHAR
STARTCHAR uni02BA
ENCODING 698
SWIDTH 411 0
DWIDTH 4 0
BBX 5 3 0 5
BITMAP
28
50
A0
ENDCHAR
STARTCHAR uni02BB
ENCODING 699
SWIDTH 333 0
DWIDTH 3 0
BBX 2 2 0 5
BITMAP
80
C0
ENDCHAR
STARTCHAR afii57929
ENCODING 700
SWIDTH 333 0
DWIDTH 3 0
BBX 2 2 0 5
BITMAP
C0
40
ENDCHAR
STARTCHAR afii64937
ENCODING 701
SWIDTH 333 0
DWIDTH 3 0
BBX 2 2 0 5
BITMAP
C0
80
ENDCHAR
STARTCHAR circumflex
ENCODING 710
SWIDTH 333 0
DWIDTH 4 0
BBX 3 2 0 6
BITMAP
40
A0
ENDCHAR
STARTCHAR caron
ENCODING 711
SWIDTH 333 0
DWIDTH 4 0
BBX 3 2 0 6
BITMAP
A0
40
ENDCHAR
STARTCHAR uni02C8
ENCODING 712
SWIDTH 180 0
DWIDTH 2 0
BBX 1 2 0 5
BITMAP
80
80
ENDCHAR
STARTCHAR macron
ENCODING 713
SWIDTH 333 0
DWIDTH 4 0
BBX 3 1 0 5
BITMAP
E0
ENDCHAR
STARTCHAR uni02CA
ENCODING 714
SWIDTH 333 0
DWIDTH 3 0
BBX 2 2 0 5
BITMAP
40
80
ENDCHAR
STARTCHAR uni02CB
ENCODING 715
SWIDTH 333 0
DWIDTH 3 0
BBX 2 2 0 6
BITMAP
80
40
ENDCHAR
STARTCHAR uni02CD
ENCODING 717
SWIDTH 333 0
DWIDTH 4 0
BBX 3 1 0 -2
BITMAP
E0
ENDCHAR
STARTCHAR uni02CE
ENCODING 718
SWIDTH 333 0
DWIDTH 3 0
BBX 2 2 0 -3
BITMAP
80
40
ENDCHAR
STARTCHAR uni02CF
ENCODING 719
SWIDTH 333 0
DWIDTH 3 0
BBX 2 2 0 -3
BITMAP
40
80
ENDCHAR
STARTCHAR breve
ENCODING 728
SWIDTH 333 0
DWIDTH 4 0
BBX 3 2 0 6
BITMAP
A0
E0
ENDCHAR
STARTCHAR dotaccent
ENCODING 729
SWIDTH 333 0
DWIDTH 3 0
BBX 1 1 1 6
BITMAP
80
ENDCHAR
STARTCHAR ring
ENCODING 730
SWIDTH 333 0
DWIDTH 4 0
BBX 3 3 0 5
BITMAP
40
A0
40
ENDCHAR
STARTCHAR ogonek
ENCODING 731
SWIDTH 333 0
DWIDTH 4 0
BBX 2 2 1 -2
BITMAP
80
C0
ENDCHAR
STARTCHAR tilde
ENCODING 732
SWIDTH 333 0
DWIDTH 5 0
BBX 4 2 0 6
BITMAP
50
A0
ENDCHAR
STARTCHAR hungarumlaut
ENCODING 733
SWIDTH 333 0
DWIDTH 5 0
BBX 4 2 0 6
BITMAP
50
A0
ENDCHAR
STARTCHAR uni02EE
ENCODING 750
SWIDTH 444 0
DWIDTH 6 0
BBX 5 2 0 5
BITMAP
D8
48
ENDCHAR
STARTCHAR uni0374
ENCODING 884
SWIDTH 247 0
DWIDTH 3 0
BBX 3 3 0 5
BITMAP
20
40
80
ENDCHAR
STARTCHAR uni0375
ENCODING 885
SWIDTH 247 0
DWIDTH 3 0
BBX 3 3 0 -4
BITMAP
20
40
80
ENDCHAR
STARTCHAR uni037E
ENCODING 894
SWIDTH 278 0
DWIDTH 3 0
BBX 2 6 0 -1
BITMAP
40
00
00
00
C0
40
ENDCHAR
STARTCHAR tonos
ENCODING 900
SWIDTH 333 0
DWIDTH 3 0
BBX 2 2 0 5
BITMAP
40
80
ENDCHAR
STARTCHAR dieresistonos
ENCODING 901
SWIDTH 333 0
DWIDTH 5 0
BBX 3 4 1 5
BITMAP
20
40
00
A0
ENDCHAR
STARTCHAR Alphatonos
ENCODING 902
SWIDTH 722 0
DWIDTH 8 0
BBX 9 7 -2 0
BITMAP
4400
8E00
0A00
0A00
1F00
1100
3B80
ENDCHAR
STARTCHAR anoteleia
ENCODING 903
SWIDTH 250 0
DWIDTH 2 0
BBX 1 1 0 2
BITMAP
80
ENDCHAR
STARTCHAR Epsilontonos
ENCODING 904
SWIDTH 611 0
DWIDTH 6 0
BBX 7 7 -2 0
BITMAP
7E
92
10
1C
10
12
3E
ENDCHAR
STARTCHAR Etatonos
ENCODING 905
SWIDTH 722 0
DWIDTH 8 0
BBX 9 7 -2 0
BITMAP
7B80
9100
1100
1F00
1100
1100
3B80
ENDCHAR
STARTCHAR Iotatonos
ENCODING 906
SWIDTH 333 0
DWIDTH 3 0
BBX 5 7 -2 0
BITMAP
78
90
10
10
10
10
38
ENDCHAR
STARTCHAR Omicrontonos
ENCODING 908
SWIDTH 722 0
DWIDTH 7 0
BBX 8 7 -2 0
BITMAP
5E
B3
21
21
21
33
1E
ENDCHAR
STARTCHAR Upsilontonos
ENCODING 910
SWIDTH 690 0
DWIDTH 8 0
BBX 9 7 -2 0
BITMAP
7B80
9100
0A00
0E00
0400
0400
0E00
ENDCHAR
STARTCHAR Omegatonos
ENCODING 911
SWIDTH 768 0
DWIDTH 9 0
BBX 10 7 -2 0
BITMAP
4F00
9980
1080
1080
1980
2940
39C0
ENDCHAR
STARTCHAR iotadieresistonos
ENCODING 912
SWIDTH 329 0
DWIDTH 4 0
BBX 3 10 0 0
BITMAP
20
40
00
A0
00
C0
40
40
40
60
ENDCHAR
STARTCHAR Alpha
ENCODING 913
SWIDTH 722 0
DWIDTH 8 0
BBX 7 7 0 0
BITMAP
10
38
28
28
7C
44
EE
ENDCHAR
STARTCHAR Beta
ENCODING 914
SWIDTH 667 0
DWIDTH 6 0
BBX 5 7 0 0
BITMAP
F0
48
48
70
48
48
F0
ENDCHAR
STARTCHAR Gamma
ENCODING 915
SWIDTH 603 0
DWIDTH 6 0
BBX 5 7 0 0
BITMAP
F8
48
40
40
40
40
E0
ENDCHAR
STARTCHAR Delta
ENCODING 916
SWIDTH 612 0
DWIDTH 7 0
BBX 6 7 0 0
BITMAP
30
30
58
48
8C
84
FC
ENDCHAR
STARTCHAR Epsilon
ENCODING 917
SWIDTH 611 0
DWIDTH 6 0
BBX 5 7 0 0
BITMAP
F8
48
40
70
40
48
F8
ENDCHAR
STARTCHAR Zeta
ENCODING 918
SWIDTH 611 0
DWIDTH 6 0
BBX 5 7 0 0
BITMAP
F8
88
10
20
40
88
F8
ENDCHAR
STARTCHAR Eta
ENCODING 919
SWIDTH 722 0
DWIDTH 8 0
BBX 7 7 0 0
BITMAP
EE
44
44
7C
44
44
EE
ENDCHAR
STARTCHAR Theta
ENCODING 920
SWIDTH 741 0
DWIDTH 7 0
BBX 6 7 0 0
BITMAP
78
CC
84
B4
84
CC
78
ENDCHAR
STARTCHAR Iota
ENCODING 921
SWIDTH 333 0
DWIDTH 3 0
BBX 3 7 0 0
BITMAP
E0
40
40
40
40
40
E0
ENDCHAR
STARTCHAR Kappa
ENCODING 922
SWIDTH 722 0
DWIDTH 7 0
BBX 6 7 0 0
BITMAP
EC
48
50
60
50
48
EC
ENDCHAR
STARTCHAR Lambda
ENCODING 923
SWIDTH 686 0
DWIDTH 7 0
BBX 7 7 0 0
BITMAP
10
10
28
28
44
44
EE
ENDCHAR
STARTCHAR Mu
ENCODING 924
SWIDTH 889 0
DWIDTH 10 0
BBX 9 7 0 0
BITMAP
E380
6300
5500
5500
5D00
4900
EB80
ENDCHAR
STARTCHAR Nu
ENCODING 925
SWIDTH 722 0
DWIDTH 8 0
BBX 7 7 0 0
BITMAP
EE
64
54
54
4C
4C
E4
ENDCHAR
STARTCHAR Xi
ENCODING 926
SWIDTH 645 0
DWIDTH 7 0
BBX 6 7 0 0
BITMAP
78
48
00
30
00
84
FC
ENDCHAR
STARTCHAR Omicron
ENCODING 927
SWIDTH 722 0
DWIDTH 7 0
BBX 6 7 0 0
BITMAP
78
CC
84
84
84
CC
78
ENDCHAR
STARTCHAR Pi
ENCODING 928
SWIDTH 768 0
DWIDTH 8 0
BBX 7 7 0 0
BITMAP
FE
44
44
44
44
44
EE
ENDCHAR
STARTCHAR Rho
ENCODING 929
SWIDTH 556 0
DWIDTH 6 0
BBX 5 7 0 0
BITMAP
F0
48
48
70
40
40
E0
ENDCHAR
STARTCHAR Sigma
ENCODING 931
SWIDTH 592 0
DWIDTH 6 0
BBX 5 7 0 0
BITMAP
F8
88
40
20
40
88
F8
ENDCHAR
STARTCHAR Tau
ENCODING 932
SWIDTH 611 0
DWIDTH 6 0
BBX 5 7 0 0
BITMAP
F8
A8
20
20
20
20
70
ENDCHAR
STARTCHAR Upsilon
ENCODING 933
SWIDTH 690 0
DWIDTH 8 0
BBX 7 7 0 0
BITMAP
EE
44
28
38
10
10
38
ENDCHAR
STARTCHAR Phi
ENCODING 934
SWIDTH 763 0
DWIDTH 8 0
BBX 7 7 0 0
BITMAP
38
10
7C
92
7C
10
38
ENDCHAR
STARTCHAR Chi
ENCODING 935
SWIDTH 722 0
DWIDTH 8 0
BBX 7 7 0 0
BITMAP
EE
44
28
10
28
44
EE
ENDCHAR
STARTCHAR Psi
ENCODING 936
SWIDTH 795 0
DWIDTH 9 0
BBX 9 7 0 0
BITMAP
DD80
4900
4900
3E00
0800
0800
1C00
ENDCHAR
STARTCHAR Omega
ENCODING 937
SWIDTH 768 0
DWIDTH 9 0
BBX 8 7 0 0
BITMAP
3C
66
42
42
66
A5
E7
ENDCHAR
STARTCHAR Iotadieresis
ENCODING 938
SWIDTH 333 0
DWIDTH 3 0
BBX 3 9 0 0
BITMAP
A0
00
E0
40
40
40
40
40
E0
ENDCHAR
STARTCHAR Upsilondieresis
ENCODING 939
SWIDTH 690 0
DWIDTH 8 0
BBX 7 9 0 0
BITMAP
28
00
EE
44
28
38
10
10
38
ENDCHAR
STARTCHAR alphatonos
ENCODING 940
SWIDTH 631 0
DWIDTH 7 0
BBX 6 8 0 0
BITMAP
10
20
00
68
A8
90
94
68
ENDCHAR
STARTCHAR epsilontonos
ENCODING 941
SWIDTH 439 0
DWIDTH 5 0
BBX 4 8 0 0
BITMAP
20
40
00
60
90
C0
90
60
ENDCHAR
STARTCHAR etatonos
ENCODING 942
SWIDTH 603 0
DWIDTH 6 0
BBX 5 10 0 -2
BITMAP
10
20
00
50
E8
48
48
48
08
08
ENDCHAR
STARTCHAR iotatonos
ENCODING 943
SWIDTH 329 0
DWIDTH 4 0
BBX 3 8 0 0
BITMAP
20
40
00
C0
40
40
40
60
ENDCHAR
STARTCHAR upsilondieresistonos
ENCODING 944
SWIDTH 576 0
DWIDTH 6 0
BBX 5 10 0 0
BITMAP
10
20
00
50
00
50
C8
48
48
30
ENDCHAR
STARTCHAR alpha
ENCODING 945
SWIDTH 631 0
DWIDTH 7 0
BBX 6 5 0 0
BITMAP
68
A8
90
94
68
ENDCHAR
STARTCHAR beta
ENCODING 946
SWIDTH 549 0
DWIDTH 5 0
BBX 4 10 0 -2
BITMAP
60
90
90
A0
90
90
D0
A0
80
80
ENDCHAR
STARTCHAR gamma
ENCODING 947
SWIDTH 411 0
DWIDTH 6 0
BBX 5 7 0 -2
BITMAP
C8
A8
28
30
10
20
20
ENDCHAR
STARTCHAR delta
ENCODING 948
SWIDTH 494 0
DWIDTH 5 0
BBX 4 8 0 0
BITMAP
60
90
40
60
90
90
90
60
ENDCHAR
STARTCHAR epsilon
ENCODING 949
SWIDTH 439 0
DWIDTH 5 0
BBX 4 5 0 0
BITMAP
60
90
C0
90
60
ENDCHAR
STARTCHAR zeta
ENCODING 950
SWIDTH 494 0
DWIDTH 5 0
BBX 4 10 0 -2
BITMAP
80
B0
60
80
80
80
80
60
10
70
ENDCHAR
STARTCHAR eta
ENCODING 951
SWIDTH 603 0
DWIDTH 6 0
BBX 5 7 0 -2
BITMAP
50
E8
48
48
48
08
08
ENDCHAR
STARTCHAR theta
ENCODING 952
SWIDTH 521 0
DWIDTH 5 0
BBX 4 7 0 0
BITMAP
60
90
90
F0
90
90
60
ENDCHAR
STARTCHAR iota
ENCODING 953
SWIDTH 329 0
DWIDTH 4 0
BBX 3 5 0 0
BITMAP
C0
40
40
40
60
ENDCHAR
STARTCHAR kappa
ENCODING 954
SWIDTH 549 0
DWIDTH 6 0
BBX 5 5 0 0
BITMAP
48
D8
60
50
48
ENDCHAR
STARTCHAR lambda
ENCODING 955
SWIDTH 549 0
DWIDTH 6 0
BBX 6 8 0 0
BITMAP
C0
A0
20
20
50
50
94
88
ENDCHAR
STARTCHAR mu
ENCODING 956
SWIDTH 500 0
DWIDTH 5 0
BBX 5 7 0 -2
BITMAP
90
90
90
90
E8
80
80
ENDCHAR
STARTCHAR nu
ENCODING 957
SWIDTH 521 0
DWIDTH 6 0
BBX 5 5 0 0
BITMAP
88
88
50
50
20
ENDCHAR
STARTCHAR xi
ENCODING 958
SWIDTH 493 0
DWIDTH 5 0
BBX 4 10 0 -2
BITMAP
80
B0
40
70
80
80
80
60
10
70
ENDCHAR
STARTCHAR omicron
ENCODING 959
SWIDTH 549 0
DWIDTH 5 0
BBX 4 5 0 0
BITMAP
60
90
90
90
60
ENDCHAR
STARTCHAR pi
ENCODING 960
SWIDTH 549 0
DWIDTH 6 0
BBX 5 5 0 0
BITMAP
F8
50
50
58
D0
ENDCHAR
STARTCHAR rho
ENCODING 961
SWIDTH 549 0
DWIDTH 5 0
BBX 4 8 0 -3
BITMAP
60
90
90
90
E0
80
80
80
ENDCHAR
STARTCHAR sigma1
ENCODING 962
SWIDTH 439 0
DWIDTH 5 0
BBX 4 7 0 -2
BITMAP
70
80
80
80
60
10
60
ENDCHAR
STARTCHAR sigma
ENCODING 963
SWIDTH 603 0
DWIDTH 6 0
BBX 5 5 0 0
BITMAP
78
90
90
90
60
ENDCHAR
STARTCHAR tau
ENCODING 964
SWIDTH 439 0
DWIDTH 5 0
BBX 4 5 0 0
BITMAP
F0
40
40
50
60
ENDCHAR
STARTCHAR upsilon
ENCODING 965
SWIDTH 576 0
DWIDTH 6 0
BBX 5 5 0 0
BITMAP
50
C8
48
48
30
ENDCHAR
STARTCHAR phi
ENCODING 966
SWIDTH 603 0
DWIDTH 6 0
BBX 5 7 0 -2
BITMAP
30
A8
A8
A8
70
20
20
ENDCHAR
STARTCHAR chi
ENCODING 967
SWIDTH 549 0
DWIDTH 6 0
BBX 5 7 0 -2
BITMAP
C8
50
50
20
50
50
98
ENDCHAR
STARTCHAR psi
ENCODING 968
SWIDTH 686 0
DWIDTH 7 0
BBX 7 7 0 -2
BITMAP
92
54
54
54
38
10
10
ENDCHAR
STARTCHAR omega
ENCODING 969
SWIDTH 686 0
DWIDTH 8 0
BBX 7 5 0 0
BITMAP
44
82
92
92
6C
ENDCHAR
STARTCHAR iotadieresis
ENCODING 970
SWIDTH 329 0
DWIDTH 4 0
BBX 3 7 0 0
BITMAP
A0
00
C0
40
40
40
60
ENDCHAR
STARTCHAR upsilondieresis
ENCODING 971
SWIDTH 576 0
DWIDTH 6 0
BBX 5 7 0 0
BITMAP
50
00
50
C8
48
48
30
ENDCHAR
STARTCHAR omicrontonos
ENCODING 972
SWIDTH 549 0
DWIDTH 5 0
BBX 4 8 0 0
BITMAP
20
40
00
60
90
90
90
60
ENDCHAR
STARTCHAR upsilontonos
ENCODING 973
SWIDTH 576 0
DWIDTH 6 0
BBX 5 8 0 0
BITMAP
10
20
00
50
C8
48
48
30
ENDCHAR
STARTCHAR omegatonos
ENCODING 974
SWIDTH 686 0
DWIDTH 8 0
BBX 7 8 0 0
BITMAP
08
10
00
44
82
92
92
6C
ENDCHAR
STARTCHAR theta1
ENCODING 977
SWIDTH 631 0
DWIDTH 7 0
BBX 6 7 0 0
BITMAP
10
28
98
4C
48
48
30
ENDCHAR
STARTCHAR Upsilon1
ENCODING 978
SWIDTH 620 0
DWIDTH 7 0
BBX 6 7 0 0
BITMAP
8C
D4
70
20
20
20
70
ENDCHAR
STARTCHAR uni03D3
ENCODING 979
SWIDTH 620 0
DWIDTH 7 0
BBX 6 10 0 0
BITMAP
10
20
00
8C
D4
70
20
20
20
70
ENDCHAR
STARTCHAR uni03D4
ENCODING 980
SWIDTH 620 0
DWIDTH 7 0
BBX 6 9 0 0
BITMAP
28
00
8C
D4
70
20
20
20
70
ENDCHAR
STARTCHAR phi1
ENCODING 981
SWIDTH 521 0
DWIDTH 6 0
BBX 5 9 0 -2
BITMAP
20
20
70
A8
A8
A8
70
20
20
ENDCHAR
STARTCHAR omega1
ENCODING 982
SWIDTH 713 0
DWIDTH 8 0
BBX 7 6 0 0
BITMAP
FE
44
82
92
92
6C
ENDCHAR
STARTCHAR uni1E00
ENCODING 7680
SWIDTH 722 0
DWIDTH 8 0
BBX 7 11 0 -4
BITMAP
10
38
28
28
7C
44
EE
00
10
28
10
ENDCHAR
STARTCHAR uni1E01
ENCODING 7681
SWIDTH 444 0
DWIDTH 4 0
BBX 3 9 0 -4
BITMAP
C0
20
60
A0
E0
00
40
A0
40
ENDCHAR
STARTCHAR uni1E02
ENCODING 7682
SWIDTH 667 0
DWIDTH 6 0
BBX 5 9 0 0
BITMAP
20
00
F0
48
48
70
48
48
F0
ENDCHAR
STARTCHAR uni1E03
ENCODING 7683
SWIDTH 500 0
DWIDTH 5 0
BBX 5 9 -1 0
BITMAP
40
00
C0
40
70
48
48
48
70
ENDCHAR
STARTCHAR uni1E04
ENCODING 7684
SWIDTH 667 0
DWIDTH 6 0
BBX 5 9 0 -2
BITMAP
F0
48
48
70
48
48
F0
00
20
ENDCHAR
STARTCHAR uni1E05
ENCODING 7685
SWIDTH 500 0
DWIDTH 5 0
BBX 5 9 -1 -2
BITMAP
C0
40
70
48
48
48
70
00
20
ENDCHAR
STARTCHAR uni1E06
ENCODING 7686
SWIDTH 667 0
DWIDTH 6 0
BBX 5 9 0 -2
BITMAP
F0
48
48
70
48
48
F0
00
70
ENDCHAR
STARTCHAR uni1E07
ENCODING 7687
SWIDTH 500 0
DWIDTH 5 0
BBX 5 9 -1 -2
BITMAP
C0
40
70
48
48
48
70
00
70
ENDCHAR
STARTCHAR uni1E08
ENCODING 7688
SWIDTH 667 0
DWIDTH 7 0
BBX 6 13 0 -3
BITMAP
10
20
00
7C
C4
80
80
80
C4
78
20
10
60
ENDCHAR
STARTCHAR uni1E09
ENCODING 7689
SWIDTH 444 0
DWIDTH 4 0
BBX 3 11 0 -3
BITMAP
20
40
00
60
80
80
80
60
40
20
C0
ENDCHAR
STARTCHAR uni1E0A
ENCODING 7690
SWIDTH 722 0
DWIDTH 7 0
BBX 6 9 0 0
BITMAP
10
00
F8
4C
44
44
44
4C
F8
ENDCHAR
STARTCHAR uni1E0B
ENCODING 7691
SWIDTH 500 0
DWIDTH 5 0
BBX 5 9 0 0
BITMAP
20
00
30
10
70
90
90
90
68
ENDCHAR
STARTCHAR uni1E0C
ENCODING 7692
SWIDTH 722 0
DWIDTH 7 0
BBX 6 9 0 -2
BITMAP
F8
4C
44
44
44
4C
F8
00
10
ENDCHAR
STARTCHAR uni1E0D
ENCODING 7693
SWIDTH 500 0
DWIDTH 5 0
BBX 5 9 0 -2
BITMAP
30
10
70
90
90
90
68
00
20
ENDCHAR
STARTCHAR uni1E0E
ENCODING 7694
SWIDTH 722 0
DWIDTH 7 0
BBX 6 9 0 -2
BITMAP
F8
4C
44
44
44
4C
F8
00
38
ENDCHAR
STARTCHAR uni1E0F
ENCODING 7695
SWIDTH 500 0
DWIDTH 5 0
BBX 5 9 0 -2
BITMAP
30
10
70
90
90
90
68
00
70
ENDCHAR
STARTCHAR uni1E10
ENCODING 7696
SWIDTH 722 0
DWIDTH 7 0
BBX 6 10 0 -3
BITMAP
F8
4C
44
44
44
4C
F8
10
08
30
ENDCHAR
STARTCHAR uni1E11
ENCODING 7697
SWIDTH 500 0
DWIDTH 5 0
BBX 5 10 0 -3
BITMAP
30
10
70
90
90
90
68
20
10
60
ENDCHAR
STARTCHAR uni1E12
ENCODING 7698
SWIDTH 722 0
DWIDTH 7 0
BBX 6 10 0 -3
BITMAP
F8
4C
44
44
44
4C
F8
00
10
28
ENDCHAR
STARTCHAR uni1E13
ENCODING 7699
SWIDTH 500 0
DWIDTH 5 0
BBX 5 10 0 -3
BITMAP
30
10
70
90
90
90
68
00
20
50
ENDCHAR
STARTCHAR uni1E14
ENCODING 7700
SWIDTH 611 0
DWIDTH 6 0
BBX 5 12 0 0
BITMAP
40
20
00
70
00
F8
48
40
70
40
48
F8
ENDCHAR
STARTCHAR uni1E15
ENCODING 7701
SWIDTH 444 0
DWIDTH 4 0
BBX 3 10 0 0
BITMAP
80
40
00
E0
00
60
A0
C0
80
60
ENDCHAR
STARTCHAR uni1E16
ENCODING 7702
SWIDTH 611 0
DWIDTH 6 0
BBX 5 12 0 0
BITMAP
10
20
00
70
00
F8
48
40
70
40
48
F8
ENDCHAR
STARTCHAR uni1E17
ENCODING 7703
SWIDTH 444 0
DWIDTH 4 0
BBX 3 10 0 0
BITMAP
20
40
00
E0
00
60
A0
C0
80
60
ENDCHAR
STARTCHAR uni1E18
ENCODING 7704
SWIDTH 611 0
DWIDTH 6 0
BBX 5 10 0 -3
BITMAP
F8
48
40
70
40
48
F8
00
20
50
ENDCHAR
STARTCHAR uni1E19
ENCODING 7705
SWIDTH 444 0
DWIDTH 4 0
BBX 3 8 0 -3
BITMAP
60
A0
C0
80
60
00
40
A0
ENDCHAR
STARTCHAR uni1E1A
ENCODING 7706
SWIDTH 611 0
DWIDTH 6 0
BBX 5 10 0 -3
BITMAP
F8
48
40
70
40
48
F8
00
50
A0
ENDCHAR
STARTCHAR uni1E1B
ENCODING 7707
SWIDTH 444 0
DWIDTH 4 0
BBX 4 8 -1 -3
BITMAP
30
50
60
40
30
00
50
A0
ENDCHAR
STARTCHAR uni1E1C
ENCODING 7708
SWIDTH 611 0
DWIDTH 6 0
BBX 5 13 0 -3
BITMAP
50
70
00
F8
48
40
70
40
48
F8
20
10
60
ENDCHAR
STARTCHAR uni1E1D
ENCODING 7709
SWIDTH 444 0
DWIDTH 4 0
BBX 3 11 0 -3
BITMAP
A0
E0
00
60
A0
C0
80
60
40
20
C0
ENDCHAR
STARTCHAR uni1E1E
ENCODING 7710
SWIDTH 556 0
DWIDTH 6 0
BBX 5 9 0 0
BITMAP
20
00
F8
48
40
70
40
40
E0
ENDCHAR
STARTCHAR uni1E1F
ENCODING 7711
SWIDTH 333 0
DWIDTH 4 0
BBX 4 9 0 0
BITMAP
20
00
30
40
E0
40
40
40
E0
ENDCHAR
STARTCHAR uni1E20
ENCODING 7712
SWIDTH 722 0
DWIDTH 7 0
BBX 6 9 0 0
BITMAP
38
00
7C
C4
80
9C
84
C4
78
ENDCHAR
STARTCHAR uni1E21
ENCODING 7713
SWIDTH 500 0
DWIDTH 5 0
BBX 4 9 0 -2
BITMAP
70
00
70
A0
A0
40
60
90
E0
ENDCHAR
STARTCHAR uni1E22
ENCODING 7714
SWIDTH 722 0
DWIDTH 8 0
BBX 7 9 0 0
BITMAP
10
00
EE
44
44
7C
44
44
EE
ENDCHAR
STARTCHAR uni1E23
ENCODING 7715
SWIDTH 500 0
DWIDTH 5 0
BBX 6 9 -1 0
BITMAP
40
00
C0
40
70
48
48
48
6C
ENDCHAR
STARTCHAR uni1E24
ENCODING 7716
SWIDTH 722 0
DWIDTH 8 0
BBX 7 9 0 -2
BITMAP
EE
44
44
7C
44
44
EE
00
10
ENDCHAR
STARTCHAR uni1E25
ENCODING 7717
SWIDTH 500 0
DWIDTH 5 0
BBX 6 9 -1 -2
BITMAP
C0
40
70
48
48
48
6C
00
10
ENDCHAR
STARTCHAR uni1E26
ENCODING 7718
SWIDTH 722 0
DWIDTH 8 0
BBX 7 9 0 0
BITMAP
28
00
EE
44
44
7C
44
44
EE
ENDCHAR
STARTCHAR uni1E27
ENCODING 7719
SWIDTH 500 0
DWIDTH 5 0
BBX 6 9 -1 0
BITMAP
A0
00
C0
40
70
48
48
48
6C
ENDCHAR
STARTCHAR uni1E28
ENCODING 7720
SWIDTH 722 0
DWIDTH 8 0
BBX 7 10 0 -3
BITMAP
EE
44
44
7C
44
44
EE
10
08
30
ENDCHAR
STARTCHAR uni1E29
ENCODING 7721
SWIDTH 500 0
DWIDTH 5 0
BBX 6 10 -1 -3
BITMAP
C0
40
70
48
48
48
6C
10
08
30
ENDCHAR
STARTCHAR uni1E2A
ENCODING 7722
SWIDTH 722 0
DWIDTH 8 0
BBX 7 10 0 -3
BITMAP
EE
44
44
7C
44
44
EE
00
28
38
ENDCHAR
STARTCHAR uni1E2B
ENCODING 7723
SWIDTH 500 0
DWIDTH 5 0
BBX 6 10 -1 -3
BITMAP
C0
40
70
48
48
48
6C
00
28
38
ENDCHAR
STARTCHAR uni1E2C
ENCODING 7724
SWIDTH 333 0
DWIDTH 4 0
BBX 4 10 -1 -3
BITMAP
70
20
20
20
20
20
70
00
50
A0
ENDCHAR
STARTCHAR uni1E2D
ENCODING 7725
SWIDTH 278 0
DWIDTH 3 0
BBX 4 10 -1 -3
BITMAP
20
00
60
20
20
20
20
00
50
A0
ENDCHAR
STARTCHAR uni1E2E
ENCODING 7726
SWIDTH 333 0
DWIDTH 4 0
BBX 3 12 0 0
BITMAP
20
40
00
A0
00
E0
40
40
40
40
40
E0
ENDCHAR
STARTCHAR uni1E2F
ENCODING 7727
SWIDTH 278 0
DWIDTH 3 0
BBX 3 10 0 0
BITMAP
20
40
00
A0
00
C0
40
40
40
40
ENDCHAR
STARTCHAR uni1E30
ENCODING 7728
SWIDTH 722 0
DWIDTH 7 0
BBX 6 10 0 0
BITMAP
10
20
00
EC
48
50
60
50
48
EC
ENDCHAR
STARTCHAR uni1E31
ENCODING 7729
SWIDTH 500 0
DWIDTH 5 0
BBX 6 10 -1 0
BITMAP
20
40
00
C0
40
48
50
70
48
4C
ENDCHAR
STARTCHAR uni1E32
ENCODING 7730
SWIDTH 722 0
DWIDTH 7 0
BBX 6 9 0 -2
BITMAP
EC
48
50
60
50
48
EC
00
20
ENDCHAR
STARTCHAR uni1E33
ENCODING 7731
SWIDTH 500 0
DWIDTH 5 0
BBX 6 9 -1 -2
BITMAP
C0
40
48
50
70
48
4C
00
10
ENDCHAR
STARTCHAR uni1E34
ENCODING 7732
SWIDTH 722 0
DWIDTH 7 0
BBX 6 9 0 -2
BITMAP
EC
48
50
60
50
48
EC
00
70
ENDCHAR
STARTCHAR uni1E35
ENCODING 7733
SWIDTH 500 0
DWIDTH 5 0
BBX 6 9 -1 -2
BITMAP
C0
40
48
50
70
48
4C
00
38
ENDCHAR
STARTCHAR uni1E36
ENCODING 7734
SWIDTH 611 0
DWIDTH 6 0
BBX 5 9 0 -2
BITMAP
E0
40
40
40
40
48
F8
00
20
ENDCHAR
STARTCHAR uni1E37
ENCODING 7735
SWIDTH 278 0
DWIDTH 4 0
BBX 3 9 0 -2
BITMAP
C0
40
40
40
40
40
E0
00
40
ENDCHAR
STARTCHAR uni1E38
ENCODING 7736
SWIDTH 611 0
DWIDTH 6 0
BBX 5 11 0 -2
BITMAP
E0
00
E0
40
40
40
40
48
F8
00
20
ENDCHAR
STARTCHAR uni1E39
ENCODING 7737
SWIDTH 278 0
DWIDTH 4 0
BBX 3 11 0 -2
BITMAP
E0
00
C0
40
40
40
40
40
E0
00
40
ENDCHAR
STARTCHAR uni1E3A
ENCODING 7738
SWIDTH 611 0
DWIDTH 6 0
BBX 5 9 0 -2
BITMAP
E0
40
40
40
40
48
F8
00
70
ENDCHAR
STARTCHAR uni1E3B
ENCODING 7739
SWIDTH 278 0
DWIDTH 4 0
BBX 3 9 0 -2
BITMAP
C0
40
40
40
40
40
E0
00
E0
ENDCHAR
STARTCHAR uni1E3C
ENCODING 7740
SWIDTH 611 0
DWIDTH 6 0
BBX 5 10 0 -3
BITMAP
E0
40
40
40
40
48
F8
00
20
50
ENDCHAR
STARTCHAR uni1E3D
ENCODING 7741
SWIDTH 278 0
DWIDTH 4 0
BBX 3 10 0 -3
BITMAP
C0
40
40
40
40
40
E0
00
40
A0
ENDCHAR
STARTCHAR uni1E3E
ENCODING 7742
SWIDTH 889 0
DWIDTH 10 0
BBX 9 10 0 0
BITMAP
0400
0800
0000
E380
6300
5500
5500
5D00
4900
EB80
ENDCHAR
STARTCHAR uni1E3F
ENCODING 7743
SWIDTH 778 0
DWIDTH 8 0
BBX 8 8 0 0
BITMAP
08
10
00
EC
92
92
92
DB
ENDCHAR
STARTCHAR uni1E40
ENCODING 7744
SWIDTH 889 0
DWIDTH 10 0
BBX 9 9 0 0
BITMAP
0800
0000
E380
6300
5500
5500
5D00
4900
EB80
ENDCHAR
STARTCHAR uni1E41
ENCODING 7745
SWIDTH 778 0
DWIDTH 8 0
BBX 8 7 0 0
BITMAP
10
00
EC
92
92
92
DB
ENDCHAR
STARTCHAR uni1E42
ENCODING 7746
SWIDTH 889 0
DWIDTH 10 0
BBX 9 9 0 -2
BITMAP
E380
6300
5500
5500
5D00
4900
EB80
0000
0800
ENDCHAR
STARTCHAR uni1E43
ENCODING 7747
SWIDTH 778 0
DWIDTH 8 0
BBX 8 7 0 -2
BITMAP
EC
92
92
92
DB
00
10
ENDCHAR
STARTCHAR uni1E44
ENCODING 7748
SWIDTH 722 0
DWIDTH 8 0
BBX 7 9 0 0
BITMAP
10
00
EE
64
54
54
4C
4C
E4
ENDCHAR
STARTCHAR uni1E45
ENCODING 7749
SWIDTH 500 0
DWIDTH 5 0
BBX 5 7 0 0
BITMAP
40
00
E0
90
90
90
D8
ENDCHAR
STARTCHAR uni1E46
ENCODING 7750
SWIDTH 722 0
DWIDTH 8 0
BBX 7 9 0 -2
BITMAP
EE
64
54
54
4C
4C
E4
00
10
ENDCHAR
STARTCHAR uni1E47
ENCODING 7751
SWIDTH 500 0
DWIDTH 5 0
BBX 5 7 0 -2
BITMAP
E0
90
90
90
D8
00
20
ENDCHAR
STARTCHAR uni1E48
ENCODING 7752
SWIDTH 722 0
DWIDTH 8 0
BBX 7 9 0 -2
BITMAP
EE
64
54
54
4C
4C
E4
00
38
ENDCHAR
STARTCHAR uni1E49
ENCODING 7753
SWIDTH 500 0
DWIDTH 5 0
BBX 5 7 0 -2
BITMAP
E0
90
90
90
D8
00
70
ENDCHAR
STARTCHAR uni1E4A
ENCODING 7754
SWIDTH 722 0
DWIDTH 8 0
BBX 7 10 0 -3
BITMAP
EE
64
54
54
4C
4C
E4
00
10
28
ENDCHAR
STARTCHAR uni1E4B
ENCODING 7755
SWIDTH 500 0
DWIDTH 5 0
BBX 5 8 0 -3
BITMAP
E0
90
90
90
D8
00
20
50
ENDCHAR
STARTCHAR uni1E4C
ENCODING 7756
SWIDTH 722 0
DWIDTH 7 0
BBX 6 13 0 0
BITMAP
10
20
00
28
50
00
78
CC
84
84
84
CC
78
ENDCHAR
STARTCHAR uni1E4D
ENCODING 7757
SWIDTH 500 0
DWIDTH 5 0
BBX 4 11 0 0
BITMAP
20
40
00
50
A0
00
60
90
90
90
60
ENDCHAR
STARTCHAR uni1E4E
ENCODING 7758
SWIDTH 722 0
DWIDTH 7 0
BBX 6 12 0 0
BITMAP
28
00
28
50
00
78
CC
84
84
84
CC
78
ENDCHAR
STARTCHAR uni1E4F
ENCODING 7759
SWIDTH 500 0
DWIDTH 5 0
BBX 4 10 0 0
BITMAP
50
00
50
A0
00
60
90
90
90
60
ENDCHAR
STARTCHAR uni1E50
ENCODING 7760
SWIDTH 722 0
DWIDTH 7 0
BBX 6 12 0 0
BITMAP
20
10
00
38
00
78
CC
84
84
84
CC
78
ENDCHAR
STARTCHAR uni1E51
ENCODING 7761
SWIDTH 500 0
DWIDTH 5 0
BBX 4 10 0 0
BITMAP
40
20
00
70
00
60
90
90
90
60
ENDCHAR
STARTCHAR uni1E52
ENCODING 7762
SWIDTH 722 0
DWIDTH 7 0
BBX 6 12 0 0
BITMAP
10
20
00
38
00
78
CC
84
84
84
CC
78
ENDCHAR
STARTCHAR uni1E53
ENCODING 7763
SWIDTH 500 0
DWIDTH 5 0
BBX 4 10 0 0
BITMAP
10
20
00
70
00
60
90
90
90
60
ENDCHAR
STARTCHAR uni1E54
ENCODING 7764
SWIDTH 556 0
DWIDTH 6 0
BBX 5 10 0 0
BITMAP
10
20
00
F0
48
48
70
40
40
E0
ENDCHAR
STARTCHAR uni1E55
ENCODING 7765
SWIDTH 500 0
DWIDTH 5 0
BBX 5 11 -1 -3
BITMAP
10
20
00
F0
48
48
48
70
40
40
E0
ENDCHAR
STARTCHAR uni1E56
ENCODING 7766
SWIDTH 556 0
DWIDTH 6 0
BBX 5 9 0 0
BITMAP
20
00
F0
48
48
70
40
40
E0
ENDCHAR
STARTCHAR uni1E57
ENCODING 7767
SWIDTH 500 0
DWIDTH 5 0
BBX 5 10 -1 -3
BITMAP
20
00
F0
48
48
48
70
40
40
E0
ENDCHAR
STARTCHAR uni1E58
ENCODING 7768
SWIDTH 667 0
DWIDTH 7 0
BBX 6 9 0 0
BITMAP
20
00
F0
48
48
70
50
48
EC
ENDCHAR
STARTCHAR uni1E59
ENCODING 7769
SWIDTH 333 0
DWIDTH 4 0
BBX 3 7 0 0
BITMAP
40
00
A0
60
40
40
E0
ENDCHAR
STARTCHAR uni1E5A
ENCODING 7770
SWIDTH 667 0
DWIDTH 7 0
BBX 6 9 0 -2
BITMAP
F0
48
48
70
50
48
EC
00
20
ENDCHAR
STARTCHAR uni1E5B
ENCODING 7771
SWIDTH 333 0
DWIDTH 4 0
BBX 3 7 0 -2
BITMAP
A0
60
40
40
E0
00
40
ENDCHAR
STARTCHAR uni1E5C
ENCODING 7772
SWIDTH 667 0
DWIDTH 7 0
BBX 6 11 0 -2
BITMAP
70
00
F0
48
48
70
50
48
EC
00
20
ENDCHAR
STARTCHAR uni1E5D
ENCODING 7773
SWIDTH 333 0
DWIDTH 4 0
BBX 3 9 0 -2
BITMAP
E0
00
A0
60
40
40
E0
00
40
ENDCHAR
STARTCHAR uni1E5E
ENCODING 7774
SWIDTH 667 0
DWIDTH 7 0
BBX 6 9 0 -2
BITMAP
F0
48
48
70
50
48
EC
00
70
ENDCHAR
STARTCHAR uni1E5F
ENCODING 7775
SWIDTH 333 0
DWIDTH 4 0
BBX 3 7 0 -2
BITMAP
A0
60
40
40
E0
00
E0
ENDCHAR
STARTCHAR uni1E60
ENCODING 7776
SWIDTH 556 0
DWIDTH 5 0
BBX 4 9 0 0
BITMAP
20
00
70
90
C0
60
10
90
E0
ENDCHAR
STARTCHAR uni1E61
ENCODING 7777
SWIDTH 389 0
DWIDTH 4 0
BBX 3 7 0 0
BITMAP
40
00
60
80
40
20
E0
ENDCHAR
STARTCHAR uni1E62
ENCODING 7778
SWIDTH 556 0
DWIDTH 5 0
BBX 4 9 0 -2
BITMAP
70
90
C0
60
10
90
E0
00
40
ENDCHAR
STARTCHAR uni1E63
ENCODING 7779
SWIDTH 389 0
DWIDTH 4 0
BBX 3 7 0 -2
BITMAP
60
80
40
20
E0
00
40
ENDCHAR
STARTCHAR uni1E64
ENCODING 7780
SWIDTH 556 0
DWIDTH 5 0
BBX 4 12 0 0
BITMAP
20
00
10
20
00
70
90
C0
60
10
90
E0
ENDCHAR
STARTCHAR uni1E65
ENCODING 7781
SWIDTH 389 0
DWIDTH 4 0
BBX 3 10 0 0
BITMAP
40
00
20
40
00
60
80
40
20
E0
ENDCHAR
STARTCHAR uni1E66
ENCODING 7782
SWIDTH 556 0
DWIDTH 5 0
BBX 4 12 0 0
BITMAP
20
00
50
20
00
70
90
C0
60
10
90
E0
ENDCHAR
STARTCHAR uni1E67
ENCODING 7783
SWIDTH 389 0
DWIDTH 4 0
BBX 3 10 0 0
BITMAP
40
00
A0
40
00
60
80
40
20
E0
ENDCHAR
STARTCHAR uni1E68
ENCODING 7784
SWIDTH 556 0
DWIDTH 5 0
BBX 4 11 0 -2
BITMAP
40
00
70
90
C0
60
10
90
E0
00
40
ENDCHAR
STARTCHAR uni1E69
ENCODING 7785
SWIDTH 389 0
DWIDTH 4 0
BBX 3 9 0 -2
BITMAP
40
00
60
80
40
20
E0
00
40
ENDCHAR
STARTCHAR uni1E6A
ENCODING 7786
SWIDTH 611 0
DWIDTH 6 0
BBX 5 9 0 0
BITMAP
20
00
F8
A8
20
20
20
20
70
ENDCHAR
STARTCHAR uni1E6B
ENCODING 7787
SWIDTH 278 0
DWIDTH 4 0
BBX 4 8 0 0
BITMAP
40
00
40
E0
40
40
40
30
ENDCHAR
STARTCHAR uni1E6C
ENCODING 7788
SWIDTH 611 0
DWIDTH 6 0
BBX 5 9 0 -2
BITMAP
F8
A8
20
20
20
20
70
00
20
ENDCHAR
STARTCHAR uni1E6D
ENCODING 7789
SWIDTH 278 0
DWIDTH 4 0
BBX 4 8 0 -2
BITMAP
40
E0
40
40
40
30
00
20
ENDCHAR
STARTCHAR uni1E6E
ENCODING 7790
SWIDTH 611 0
DWIDTH 6 0
BBX 5 9 0 -2
BITMAP
F8
A8
20
20
20
20
70
00
70
ENDCHAR
STARTCHAR uni1E6F
ENCODING 7791
SWIDTH 278 0
DWIDTH 4 0
BBX 4 8 0 -2
BITMAP
40
E0
40
40
40
30
00
70
ENDCHAR
STARTCHAR uni1E70
ENCODING 7792
SWIDTH 611 0
DWIDTH 6 0
BBX 5 10 0 -3
BITMAP
F8
A8
20
20
20
20
70
00
20
50
ENDCHAR
STARTCHAR uni1E71
ENCODING 7793
SWIDTH 278 0
DWIDTH 4 0
BBX 4 9 0 -3
BITMAP
40
E0
40
40
40
30
00
20
50
ENDCHAR
STARTCHAR uni1E72
ENCODING 7794
SWIDTH 722 0
DWIDTH 8 0
BBX 7 9 0 -2
BITMAP
EE
44
44
44
44
6C
38
00
28
ENDCHAR
STARTCHAR uni1E73
ENCODING 7795
SWIDTH 500 0
DWIDTH 5 0
BBX 5 7 0 -2
BITMAP
D8
90
90
90
68
00
50
ENDCHAR
STARTCHAR uni1E74
ENCODING 7796
SWIDTH 722 0
DWIDTH 8 0
BBX 7 10 0 -3
BITMAP
EE
44
44
44
44
6C
38
00
28
50
ENDCHAR
STARTCHAR uni1E75
ENCODING 7797
SWIDTH 500 0
DWIDTH 5 0
BBX 5 8 0 -3
BITMAP
D8
90
90
90
68
00
50
A0
ENDCHAR
STARTCHAR uni1E76
ENCODING 7798
SWIDTH 722 0
DWIDTH 8 0
BBX 7 10 0 -3
BITMAP
EE
44
44
44
44
6C
38
00
10
28
ENDCHAR
STARTCHAR uni1E77
ENCODING 7799
SWIDTH 500 0
DWIDTH 5 0
BBX 5 8 0 -3
BITMAP
D8
90
90
90
68
00
20
50
ENDCHAR
STARTCHAR uni1E78
ENCODING 7800
SWIDTH 722 0
DWIDTH 8 0
BBX 7 13 0 0
BITMAP
08
10
00
14
28
00
EE
44
44
44
44
6C
38
ENDCHAR
STARTCHAR uni1E79
ENCODING 7801
SWIDTH 500 0
DWIDTH 5 0
BBX 5 11 0 0
BITMAP
10
20
00
28
50
00
D8
90
90
90
68
ENDCHAR
STARTCHAR uni1E7A
ENCODING 7802
SWIDTH 722 0
DWIDTH 8 0
BBX 7 11 0 0
BITMAP
28
00
38
00
EE
44
44
44
44
6C
38
ENDCHAR
STARTCHAR uni1E7B
ENCODING 7803
SWIDTH 500 0
DWIDTH 5 0
BBX 5 9 0 0
BITMAP
50
00
70
00
D8
90
90
90
68
ENDCHAR
STARTCHAR uni1E7C
ENCODING 7804
SWIDTH 722 0
DWIDTH 8 0
BBX 7 10 0 0
BITMAP
14
28
00
EE
44
6C
28
28
10
10
ENDCHAR
STARTCHAR uni1E7D
ENCODING 7805
SWIDTH 500 0
DWIDTH 5 0
BBX 6 8 -1 0
BITMAP
28
50
00
EC
48
28
30
10
ENDCHAR
STARTCHAR uni1E7E
ENCODING 7806
SWIDTH 722 0
DWIDTH 8 0
BBX 7 9 0 -2
BITMAP
EE
44
6C
28
28
10
10
00
10
ENDCHAR
STARTCHAR uni1E7F
ENCODING 7807
SWIDTH 500 0
DWIDTH 5 0
BBX 6 7 -1 -2
BITMAP
EC
48
28
30
10
00
10
ENDCHAR
STARTCHAR Wgrave
ENCODING 7808
SWIDTH 944 0
DWIDTH 10 0
BBX 11 10 -1 0
BITMAP
0800
0400
0000
EEE0
4440
64C0
2E80
2A80
1100
1100
ENDCHAR
STARTCHAR wgrave
ENCODING 7809
SWIDTH 722 0
DWIDTH 8 0
BBX 9 8 -1 0
BITMAP
1000
0800
0000
ED80
4900
2A00
3600
1400
ENDCHAR
STARTCHAR Wacute
ENCODING 7810
SWIDTH 944 0
DWIDTH 10 0
BBX 11 10 -1 0
BITMAP
0200
0400
0000
EEE0
4440
64C0
2E80
2A80
1100
1100
ENDCHAR
STARTCHAR wacute
ENCODING 7811
SWIDTH 722 0
DWIDTH 8 0
BBX 9 8 -1 0
BITMAP
0400
0800
0000
ED80
4900
2A00
3600
1400
ENDCHAR
STARTCHAR Wdieresis
ENCODING 7812
SWIDTH 944 0
DWIDTH 10 0
BBX 11 9 -1 0
BITMAP
0A00
0000
EEE0
4440
64C0
2E80
2A80
1100
1100
ENDCHAR
STARTCHAR wdieresis
ENCODING 7813
SWIDTH 722 0
DWIDTH 8 0
BBX 9 7 -1 0
BITMAP
1400
0000
ED80
4900
2A00
3600
1400
ENDCHAR
STARTCHAR uni1E86
ENCODING 7814
SWIDTH 944 0
DWIDTH 10 0
BBX 11 9 -1 0
BITMAP
0400
0000
EEE0
4440
64C0
2E80
2A80
1100
1100
ENDCHAR
STARTCHAR uni1E87
ENCODING 7815
SWIDTH 722 0
DWIDTH 8 0
BBX 9 7 -1 0
BITMAP
0800
0000
ED80
4900
2A00
3600
1400
ENDCHAR
STARTCHAR uni1E88
ENCODING 7816
SWIDTH 944 0
DWIDTH 10 0
BBX 11 9 -1 -2
BITMAP
EEE0
4440
64C0
2E80
2A80
1100
1100
0000
0400
ENDCHAR
STARTCHAR uni1E89
ENCODING 7817
SWIDTH 722 0
DWIDTH 8 0
BBX 9 7 -1 -2
BITMAP
ED80
4900
2A00
3600
1400
0000
0800
ENDCHAR
STARTCHAR uni1E8A
ENCODING 7818
SWIDTH 722 0
DWIDTH 8 0
BBX 7 9 0 0
BITMAP
10
00
EE
44
28
10
28
44
EE
ENDCHAR
STARTCHAR uni1E8B
ENCODING 7819
SWIDTH 500 0
DWIDTH 6 0
BBX 5 7 0 0
BITMAP
20
00
D8
50
20
50
D8
ENDCHAR
STARTCHAR uni1E8C
ENCODING 7820
SWIDTH 722 0
DWIDTH 8 0
BBX 7 9 0 0
BITMAP
28
00
EE
44
28
10
28
44
EE
ENDCHAR
STARTCHAR uni1E8D
ENCODING 7821
SWIDTH 500 0
DWIDTH 6 0
BBX 5 7 0 0
BITMAP
50
00
D8
50
20
50
D8
ENDCHAR
STARTCHAR uni1E8E
ENCODING 7822
SWIDTH 722 0
DWIDTH 8 0
BBX 7 9 0 0
BITMAP
10
00
EE
44
28
38
10
10
38
ENDCHAR
STARTCHAR uni1E8F
ENCODING 7823
SWIDTH 500 0
DWIDTH 5 0
BBX 6 9 -1 -2
BITMAP
10
00
DC
48
50
30
20
60
C0
ENDCHAR
STARTCHAR uni1E90
ENCODING 7824
SWIDTH 611 0
DWIDTH 6 0
BBX 5 10 0 0
BITMAP
20
50
00
F8
88
10
20
40
88
F8
ENDCHAR
STARTCHAR uni1E91
ENCODING 7825
SWIDTH 444 0
DWIDTH 5 0
BBX 4 8 0 0
BITMAP
20
50
00
F0
20
40
90
F0
ENDCHAR
STARTCHAR uni1E92
ENCODING 7826
SWIDTH 611 0
DWIDTH 6 0
BBX 5 9 0 -2
BITMAP
F8
88
10
20
40
88
F8
00
20
ENDCHAR
STARTCHAR uni1E93
ENCODING 7827
SWIDTH 444 0
DWIDTH 5 0
BBX 4 7 0 -2
BITMAP
F0
20
40
90
F0
00
20
ENDCHAR
STARTCHAR uni1E94
ENCODING 7828
SWIDTH 611 0
DWIDTH 6 0
BBX 5 9 0 -2
BITMAP
F8
88
10
20
40
88
F8
00
70
ENDCHAR
STARTCHAR uni1E95
ENCODING 7829
SWIDTH 444 0
DWIDTH 5 0
BBX 4 7 0 -2
BITMAP
F0
20
40
90
F0
00
70
ENDCHAR
STARTCHAR uni1E96
ENCODING 7830
SWIDTH 500 0
DWIDTH 5 0
BBX 6 9 -1 -2
BITMAP
C0
40
70
48
48
48
6C
00
38
ENDCHAR
STARTCHAR uni1E97
ENCODING 7831
SWIDTH 278 0
DWIDTH 4 0
BBX 4 8 0 0
BITMAP
A0
00
40
E0
40
40
40
30
ENDCHAR
STARTCHAR uni1E98
ENCODING 7832
SWIDTH 722 0
DWIDTH 8 0
BBX 9 9 -1 0
BITMAP
0800
1400
0800
0000
ED80
4900
2A00
3600
1400
ENDCHAR
STARTCHAR uni1E99
ENCODING 7833
SWIDTH 500 0
DWIDTH 5 0
BBX 6 11 -1 -2
BITMAP
10
28
10
00
DC
48
50
30
20
60
C0
ENDCHAR
STARTCHAR uni1EA0
ENCODING 7840
SWIDTH 722 0
DWIDTH 8 0
BBX 7 9 0 -2
BITMAP
10
38
28
28
7C
44
EE
00
10
ENDCHAR
STARTCHAR uni1EA1
ENCODING 7841
SWIDTH 444 0
DWIDTH 4 0
BBX 3 7 0 -2
BITMAP
C0
20
60
A0
E0
00
40
ENDCHAR
STARTCHAR uni1EA4
ENCODING 7844
SWIDTH 722 0
DWIDTH 8 0
BBX 7 13 0 0
BITMAP
08
10
00
10
28
00
10
38
28
28
7C
44
EE
ENDCHAR
STARTCHAR uni1EA5
ENCODING 7845
SWIDTH 444 0
DWIDTH 4 0
BBX 3 11 0 0
BITMAP
20
40
00
40
A0
00
C0
20
60
A0
E0
ENDCHAR
STARTCHAR uni1EA6
ENCODING 7846
SWIDTH 722 0
DWIDTH 8 0
BBX 7 13 0 0
BITMAP
20
10
00
10
28
00
10
38
28
28
7C
44
EE
ENDCHAR
STARTCHAR uni1EA7
ENCODING 7847
SWIDTH 444 0
DWIDTH 4 0
BBX 3 11 0 0
BITMAP
80
40
00
40
A0
00
C0
20
60
A0
E0
ENDCHAR
STARTCHAR uni1EAA
ENCODING 7850
SWIDTH 722 0
DWIDTH 8 0
BBX 7 13 0 0
BITMAP
14
28
00
10
28
00
10
38
28
28
7C
44
EE
ENDCHAR
STARTCHAR uni1EAB
ENCODING 7851
SWIDTH 444 0
DWIDTH 4 0
BBX 4 11 0 0
BITMAP
50
A0
00
40
A0
00
C0
20
60
A0
E0
ENDCHAR
STARTCHAR uni1EAC
ENCODING 7852
SWIDTH 722 0
DWIDTH 8 0
BBX 7 12 0 -2
BITMAP
10
28
00
10
38
28
28
7C
44
EE
00
10
ENDCHAR
STARTCHAR uni1EAD
ENCODING 7853
SWIDTH 444 0
DWIDTH 4 0
BBX 3 10 0 -2
BITMAP
40
A0
00
C0
20
60
A0
E0
00
40
ENDCHAR
STARTCHAR uni1EAE
ENCODING 7854
SWIDTH 722 0
DWIDTH 8 0
BBX 7 13 0 0
BITMAP
08
10
00
28
38
00
10
38
28
28
7C
44
EE
ENDCHAR
STARTCHAR uni1EAF
ENCODING 7855
SWIDTH 444 0
DWIDTH 4 0
BBX 3 11 0 0
BITMAP
20
40
00
A0
E0
00
C0
20
60
A0
E0
ENDCHAR
STARTCHAR uni1EB0
ENCODING 7856
SWIDTH 722 0
DWIDTH 8 0
BBX 7 13 0 0
BITMAP
20
10
00
28
38
00
10
38
28
28
7C
44
EE
ENDCHAR
STARTCHAR uni1EB1
ENCODING 7857
SWIDTH 444 0
DWIDTH 4 0
BBX 3 11 0 0
BITMAP
80
40
00
A0
E0
00
C0
20
60
A0
E0
ENDCHAR
STARTCHAR uni1EB4
ENCODING 7860
SWIDTH 722 0
DWIDTH 8 0
BBX 7 13 0 0
BITMAP
14
28
00
28
38
00
10
38
28
28
7C
44
EE
ENDCHAR
STARTCHAR uni1EB5
ENCODING 7861
SWIDTH 444 0
DWIDTH 4 0
BBX 4 11 0 0
BITMAP
50
A0
00
A0
E0
00
C0
20
60
A0
E0
ENDCHAR
STARTCHAR uni1EB6
ENCODING 7862
SWIDTH 722 0
DWIDTH 8 0
BBX 7 12 0 -2
BITMAP
28
38
00
10
38
28
28
7C
44
EE
00
10
ENDCHAR
STARTCHAR uni1EB7
ENCODING 7863
SWIDTH 444 0
DWIDTH 4 0
BBX 3 10 0 -2
BITMAP
A0
E0
00
C0
20
60
A0
E0
00
40
ENDCHAR
STARTCHAR uni1EB8
ENCODING 7864
SWIDTH 611 0
DWIDTH 6 0
BBX 5 9 0 -2
BITMAP
F8
48
40
70
40
48
F8
00
20
ENDCHAR
STARTCHAR uni1EB9
ENCODING 7865
SWIDTH 444 0
DWIDTH 4 0
BBX 3 7 0 -2
BITMAP
60
A0
C0
80
60
00
40
ENDCHAR
STARTCHAR uni1EBC
ENCODING 7868
SWIDTH 611 0
DWIDTH 6 0
BBX 5 10 0 0
BITMAP
28
50
00
F8
48
40
70
40
48
F8
ENDCHAR
STARTCHAR uni1EBD
ENCODING 7869
SWIDTH 444 0
DWIDTH 4 0
BBX 4 8 0 0
BITMAP
50
A0
00
60
A0
C0
80
60
ENDCHAR
STARTCHAR uni1EBE
ENCODING 7870
SWIDTH 611 0
DWIDTH 6 0
BBX 5 13 0 0
BITMAP
10
20
00
20
50
00
F8
48
40
70
40
48
F8
ENDCHAR
STARTCHAR uni1EBF
ENCODING 7871
SWIDTH 444 0
DWIDTH 4 0
BBX 3 11 0 0
BITMAP
20
40
00
40
A0
00
60
A0
C0
80
60
ENDCHAR
STARTCHAR uni1EC0
ENCODING 7872
SWIDTH 611 0
DWIDTH 6 0
BBX 5 13 0 0
BITMAP
40
20
00
20
50
00
F8
48
40
70
40
48
F8
ENDCHAR
STARTCHAR uni1EC1
ENCODING 7873
SWIDTH 444 0
DWIDTH 4 0
BBX 3 11 0 0
BITMAP
80
40
00
40
A0
00
60
A0
C0
80
60
ENDCHAR
STARTCHAR uni1EC4
ENCODING 7876
SWIDTH 611 0
DWIDTH 6 0
BBX 5 13 0 0
BITMAP
28
50
00
20
50
00
F8
48
40
70
40
48
F8
ENDCHAR
STARTCHAR uni1EC5
ENCODING 7877
SWIDTH 444 0
DWIDTH 4 0
BBX 4 11 0 0
BITMAP
50
A0
00
40
A0
00
60
A0
C0
80
60
ENDCHAR
STARTCHAR uni1EC6
ENCODING 7878
SWIDTH 611 0
DWIDTH 6 0
BBX 5 12 0 -2
BITMAP
20
50
00
F8
48
40
70
40
48
F8
00
20
ENDCHAR
STARTCHAR uni1EC7
ENCODING 7879
SWIDTH 444 0
DWIDTH 4 0
BBX 3 10 0 -2
BITMAP
40
A0
00
60
A0
C0
80
60
00
40
ENDCHAR
STARTCHAR uni1ECA
ENCODING 7882
SWIDTH 333 0
DWIDTH 4 0
BBX 3 9 0 -2
BITMAP
E0
40
40
40
40
40
E0
00
40
ENDCHAR
STARTCHAR uni1ECB
ENCODING 7883
SWIDTH 278 0
DWIDTH 3 0
BBX 2 9 0 -2
BITMAP
40
00
C0
40
40
40
40
00
40
ENDCHAR
STARTCHAR uni1ECC
ENCODING 7884
SWIDTH 722 0
DWIDTH 7 0
BBX 6 9 0 -2
BITMAP
78
CC
84
84
84
CC
78
00
10
ENDCHAR
STARTCHAR uni1ECD
ENCODING 7885
SWIDTH 500 0
DWIDTH 5 0
BBX 4 7 0 -2
BITMAP
60
90
90
90
60
00
20
ENDCHAR
STARTCHAR uni1ED0
ENCODING 7888
SWIDTH 722 0
DWIDTH 7 0
BBX 6 13 0 0
BITMAP
08
10
00
10
28
00
78
CC
84
84
84
CC
78
ENDCHAR
STARTCHAR uni1ED1
ENCODING 7889
SWIDTH 500 0
DWIDTH 5 0
BBX 4 11 0 0
BITMAP
20
40
00
40
A0
00
60
90
90
90
60
ENDCHAR
STARTCHAR uni1ED2
ENCODING 7890
SWIDTH 722 0
DWIDTH 7 0
BBX 6 13 0 0
BITMAP
20
10
00
10
28
00
78
CC
84
84
84
CC
78
ENDCHAR
STARTCHAR uni1ED3
ENCODING 7891
SWIDTH 500 0
DWIDTH 5 0
BBX 4 11 0 0
BITMAP
80
40
00
40
A0
00
60
90
90
90
60
ENDCHAR
STARTCHAR uni1ED6
ENCODING 7894
SWIDTH 722 0
DWIDTH 7 0
BBX 6 13 0 0
BITMAP
14
28
00
10
28
00
78
CC
84
84
84
CC
78
ENDCHAR
STARTCHAR uni1ED7
ENCODING 7895
SWIDTH 500 0
DWIDTH 5 0
BBX 4 11 0 0
BITMAP
50
A0
00
40
A0
00
60
90
90
90
60
ENDCHAR
STARTCHAR uni1ED8
ENCODING 7896
SWIDTH 722 0
DWIDTH 7 0
BBX 6 12 0 -2
BITMAP
10
28
00
78
CC
84
84
84
CC
78
00
10
ENDCHAR
STARTCHAR uni1ED9
ENCODING 7897
SWIDTH 500 0
DWIDTH 5 0
BBX 4 10 0 -2
BITMAP
20
50
00
60
90
90
90
60
00
20
ENDCHAR
STARTCHAR uni1EDA
ENCODING 7898
SWIDTH 722 0
DWIDTH 7 0
BBX 8 10 0 0
BITMAP
08
10
00
7B
CD
84
84
84
CC
78
ENDCHAR
STARTCHAR uni1EDB
ENCODING 7899
SWIDTH 500 0
DWIDTH 5 0
BBX 6 8 0 0
BITMAP
08
10
00
6C
94
90
90
60
ENDCHAR
STARTCHAR uni1EDC
ENCODING 7900
SWIDTH 722 0
DWIDTH 7 0
BBX 8 10 0 0
BITMAP
10
08
00
7B
CD
84
84
84
CC
78
ENDCHAR
STARTCHAR uni1EDD
ENCODING 7901
SWIDTH 500 0
DWIDTH 5 0
BBX 6 8 0 0
BITMAP
20
10
00
6C
94
90
90
60
ENDCHAR
STARTCHAR uni1EE0
ENCODING 7904
SWIDTH 722 0
DWIDTH 7 0
BBX 8 10 0 0
BITMAP
14
28
00
7B
CD
84
84
84
CC
78
ENDCHAR
STARTCHAR uni1EE1
ENCODING 7905
SWIDTH 500 0
DWIDTH 5 0
BBX 6 8 0 0
BITMAP
14
28
00
6C
94
90
90
60
ENDCHAR
STARTCHAR uni1EE2
ENCODING 7906
SWIDTH 722 0
DWIDTH 7 0
BBX 8 9 0 -2
BITMAP
7B
CD
84
84
84
CC
78
00
10
ENDCHAR
STARTCHAR uni1EE3
ENCODING 7907
SWIDTH 500 0
DWIDTH 5 0
BBX 6 7 0 -2
BITMAP
6C
94
90
90
60
00
20
ENDCHAR
STARTCHAR uni1EE4
ENCODING 7908
SWIDTH 722 0
DWIDTH 8 0
BBX 7 9 0 -2
BITMAP
EE
44
44
44
44
6C
38
00
10
ENDCHAR
STARTCHAR uni1EE5
ENCODING 7909
SWIDTH 500 0
DWIDTH 5 0
BBX 5 7 0 -2
BITMAP
D8
90
90
90
68
00
20
ENDCHAR
STARTCHAR uni1EE8
ENCODING 7912
SWIDTH 722 0
DWIDTH 8 0
BBX 9 10 0 0
BITMAP
0400
0800
0000
EF80
4480
4400
4400
4400
6C00
3800
ENDCHAR
STARTCHAR uni1EE9
ENCODING 7913
SWIDTH 500 0
DWIDTH 5 0
BBX 7 8 0 0
BITMAP
08
10
00
DE
92
90
90
68
ENDCHAR
STARTCHAR uni1EEA
ENCODING 7914
SWIDTH 722 0
DWIDTH 8 0
BBX 9 10 0 0
BITMAP
1000
0800
0000
EF80
4480
4400
4400
4400
6C00
3800
ENDCHAR
STARTCHAR uni1EEB
ENCODING 7915
SWIDTH 500 0
DWIDTH 5 0
BBX 7 8 0 0
BITMAP
20
10
00
DE
92
90
90
68
ENDCHAR
STARTCHAR uni1EEE
ENCODING 7918
SWIDTH 722 0
DWIDTH 8 0
BBX 9 10 0 0
BITMAP
0A00
1400
0000
EF80
4480
4400
4400
4400
6C00
3800
ENDCHAR
STARTCHAR uni1EEF
ENCODING 7919
SWIDTH 500 0
DWIDTH 5 0
BBX 7 8 0 0
BITMAP
14
28
00
DE
92
90
90
68
ENDCHAR
STARTCHAR uni1EF0
ENCODING 7920
SWIDTH 722 0
DWIDTH 8 0
BBX 9 9 0 -2
BITMAP
EF80
4480
4400
4400
4400
6C00
3800
0000
1000
ENDCHAR
STARTCHAR uni1EF1
ENCODING 7921
SWIDTH 500 0
DWIDTH 5 0
BBX 7 7 0 -2
BITMAP
DE
92
90
90
68
00
20
ENDCHAR
STARTCHAR Ygrave
ENCODING 7922
SWIDTH 722 0
DWIDTH 8 0
BBX 7 10 0 0
BITMAP
20
10
00
EE
44
28
38
10
10
38
ENDCHAR
STARTCHAR ygrave
ENCODING 7923
SWIDTH 500 0
DWIDTH 5 0
BBX 6 10 -1 -2
BITMAP
20
10
00
DC
48
50
30
20
60
C0
ENDCHAR
STARTCHAR uni1EF4
ENCODING 7924
SWIDTH 722 0
DWIDTH 8 0
BBX 7 9 0 -2
BITMAP
EE
44
28
38
10
10
38
00
10
ENDCHAR
STARTCHAR uni1EF5
ENCODING 7925
SWIDTH 500 0
DWIDTH 5 0
BBX 6 9 -1 -4
BITMAP
DC
48
50
30
20
60
C0
00
20
ENDCHAR
STARTCHAR uni1EF8
ENCODING 7928
SWIDTH 722 0
DWIDTH 8 0
BBX 7 10 0 0
BITMAP
14
28
00
EE
44
28
38
10
10
38
ENDCHAR
STARTCHAR uni1EF9
ENCODING 7929
SWIDTH 500 0
DWIDTH 5 0
BBX 6 10 -1 -2
BITMAP
28
50
00
DC
48
50
30
20
60
C0
ENDCHAR
STARTCHAR uni2000
ENCODING 8192
SWIDTH 500 0
DWIDTH 6 0
BBX 1 1 0 0
BITMAP
00
ENDCHAR
STARTCHAR uni2001
ENCODING 8193
SWIDTH 1000 0
DWIDTH 11 0
BBX 1 1 0 0
BITMAP
00
ENDCHAR
STARTCHAR uni2002
ENCODING 8194
SWIDTH 500 0
DWIDTH 6 0
BBX 1 1 0 0
BITMAP
00
ENDCHAR
STARTCHAR uni2003
ENCODING 8195
SWIDTH 1000 0
DWIDTH 11 0
BBX 1 1 0 0
BITMAP
00
ENDCHAR
STARTCHAR uni2004
ENCODING 8196
SWIDTH 333 0
DWIDTH 4 0
BBX 1 1 0 0
BITMAP
00
ENDCHAR
STARTCHAR uni2005
ENCODING 8197
SWIDTH 250 0
DWIDTH 3 0
BBX 1 1 0 0
BITMAP
00
ENDCHAR
STARTCHAR uni2006
ENCODING 8198
SWIDTH 167 0
DWIDTH 2 0
BBX 1 1 0 0
BITMAP
00
ENDCHAR
STARTCHAR uni2007
ENCODING 8199
SWIDTH 500 0
DWIDTH 5 0
BBX 1 1 0 0
BITMAP
00
ENDCHAR
STARTCHAR uni2008
ENCODING 8200
SWIDTH 250 0
DWIDTH 3 0
BBX 1 1 0 0
BITMAP
00
ENDCHAR
STARTCHAR uni2009
ENCODING 8201
SWIDTH 200 0
DWIDTH 2 0
BBX 1 1 0 0
BITMAP
00
ENDCHAR
STARTCHAR uni200A
ENCODING 8202
SWIDTH 100 0
DWIDTH 1 0
BBX 1 1 0 0
BITMAP
00
ENDCHAR
STARTCHAR uni200B
ENCODING 8203
SWIDTH 0 0
DWIDTH 0 0
BBX 1 1 0 0
BITMAP
00
ENDCHAR
STARTCHAR uni2010
ENCODING 8208
SWIDTH 333 0
DWIDTH 4 0
BBX 3 1 0 2
BITMAP
E0
ENDCHAR
STARTCHAR uni2011
ENCODING 8209
SWIDTH 333 0
DWIDTH 4 0
BBX 3 1 0 2
BITMAP
E0
ENDCHAR
STARTCHAR figuredash
ENCODING 8210
SWIDTH 500 0
DWIDTH 5 0
BBX 5 1 0 2
BITMAP
F8
ENDCHAR
STARTCHAR endash
ENCODING 8211
SWIDTH 500 0
DWIDTH 5 0
BBX 5 1 0 2
BITMAP
F8
ENDCHAR
STARTCHAR emdash
ENCODING 8212
SWIDTH 1000 0
DWIDTH 10 0
BBX 10 1 0 2
BITMAP
FFC0
ENDCHAR
STARTCHAR afii00208
ENCODING 8213
SWIDTH 1000 0
DWIDTH 10 0
BBX 10 1 0 2
BITMAP
FFC0
ENDCHAR
STARTCHAR quoteleft
ENCODING 8216
SWIDTH 333 0
DWIDTH 3 0
BBX 2 2 0 5
BITMAP
80
C0
ENDCHAR
STARTCHAR quoteright
ENCODING 8217
SWIDTH 333 0
DWIDTH 3 0
BBX 2 2 0 5
BITMAP
C0
40
ENDCHAR
STARTCHAR quotesinglbase
ENCODING 8218
SWIDTH 333 0
DWIDTH 3 0
BBX 2 2 0 -1
BITMAP
C0
40
ENDCHAR
STARTCHAR quotereversed
ENCODING 8219
SWIDTH 333 0
DWIDTH 3 0
BBX 2 2 0 5
BITMAP
C0
80
ENDCHAR
STARTCHAR quotedblleft
ENCODING 8220
SWIDTH 444 0
DWIDTH 6 0
BBX 5 2 0 5
BITMAP
90
D8
ENDCHAR
STARTCHAR quotedblright
ENCODING 8221
SWIDTH 444 0
DWIDTH 6 0
BBX 5 2 0 5
BITMAP
D8
48
ENDCHAR
STARTCHAR quotedblbase
ENCODING 8222
SWIDTH 444 0
DWIDTH 6 0
BBX 5 2 0 -1
BITMAP
D8
48
ENDCHAR
STARTCHAR uni201F
ENCODING 8223
SWIDTH 444 0
DWIDTH 6 0
BBX 5 2 0 5
BITMAP
D8
90
ENDCHAR
STARTCHAR dagger
ENCODING 8224
SWIDTH 500 0
DWIDTH 5 0
BBX 3 9 1 -1
BITMAP
40
40
E0
40
40
40
40
40
40
ENDCHAR
STARTCHAR daggerdbl
ENCODING 8225
SWIDTH 500 0
DWIDTH 5 0
BBX 3 9 1 -1
BITMAP
40
40
E0
40
40
40
E0
40
40
ENDCHAR
STARTCHAR bullet
ENCODING 8226
SWIDTH 350 0
DWIDTH 4 0
BBX 4 3 0 2
BITMAP
60
F0
60
ENDCHAR
STARTCHAR ellipsis
ENCODING 8230
SWIDTH 1000 0
DWIDTH 10 0
BBX 7 1 1 0
BITMAP
92
ENDCHAR
STARTCHAR perthousand
ENCODING 8240
SWIDTH 1000 0
DWIDTH 10 0
BBX 10 7 0 0
BITMAP
7E00
A400
A800
5480
2B40
2B40
4480
ENDCHAR
STARTCHAR minute
ENCODING 8242
SWIDTH 247 0
DWIDTH 3 0
BBX 3 3 0 5
BITMAP
20
40
80
ENDCHAR
STARTCHAR second
ENCODING 8243
SWIDTH 411 0
DWIDTH 4 0
BBX 5 3 0 5
BITMAP
28
50
A0
ENDCHAR
STARTCHAR guilsinglleft
ENCODING 8249
SWIDTH 333 0
DWIDTH 3 0
BBX 2 4 0 1
BITMAP
40
80
80
40
ENDCHAR
STARTCHAR guilsinglright
ENCODING 8250
SWIDTH 333 0
DWIDTH 3 0
BBX 2 4 0 1
BITMAP
80
40
40
80
ENDCHAR
STARTCHAR fraction
ENCODING 8260
SWIDTH 167 0
DWIDTH 4 0
BBX 5 7 -1 0
BITMAP
08
10
10
20
40
40
80
ENDCHAR
STARTCHAR oneinferior
ENCODING 8321
SWIDTH 300 0
DWIDTH 3 0
BBX 3 4 0 -3
BITMAP
40
C0
40
E0
ENDCHAR
STARTCHAR twoinferior
ENCODING 8322
SWIDTH 300 0
DWIDTH 3 0
BBX 3 4 0 -3
BITMAP
60
A0
40
E0
ENDCHAR
STARTCHAR threeinferior
ENCODING 8323
SWIDTH 300 0
DWIDTH 3 0
BBX 3 4 0 -3
BITMAP
E0
40
20
C0
ENDCHAR
STARTCHAR uni20A5
ENCODING 8357
SWIDTH 778 0
DWIDTH 8 0
BBX 8 7 0 -1
BITMAP
04
EC
9A
9A
9A
DB
10
ENDCHAR
STARTCHAR uni20A6
ENCODING 8358
SWIDTH 722 0
DWIDTH 8 0
BBX 7 7 0 0
BITMAP
EE
64
7C
54
7C
4C
E4
ENDCHAR
STARTCHAR uni20A9
ENCODING 8361
SWIDTH 944 0
DWIDTH 10 0
BBX 11 7 -1 0
BITMAP
EEE0
4440
7FC0
2E80
3F80
1100
1100
ENDCHAR
STARTCHAR Euro
ENCODING 8364
SWIDTH 667 0
DWIDTH 7 0
BBX 7 7 -1 0
BITMAP
3E
62
F8
40
F8
62
3C
ENDCHAR
STARTCHAR uni20AD
ENCODING 8365
SWIDTH 722 0
DWIDTH 7 0
BBX 6 7 0 0
BITMAP
EC
48
50
FC
50
48
EC
ENDCHAR
STARTCHAR uni2103
ENCODING 8451
SWIDTH 1047 0
DWIDTH 11 0
BBX 10 7 0 0
BITMAP
67C0
9C40
9800
6800
0800
0C40
0780
ENDCHAR
STARTCHAR uni2109
ENCODING 8457
SWIDTH 936 0
DWIDTH 10 0
BBX 9 7 0 0
BITMAP
6F80
9480
9400
6700
0400
0400
0E00
ENDCHAR
STARTCHAR Ifraktur
ENCODING 8465
SWIDTH 686 0
DWIDTH 7 0
BBX 6 9 0 -1
BITMAP
7C
84
C8
18
0C
04
44
E8
30
ENDCHAR
STARTCHAR weierstrass
ENCODING 8472
SWIDTH 987 0
DWIDTH 9 0
BBX 7 8 1 -2
BITMAP
10
24
4A
52
6A
6C
A0
60
ENDCHAR
STARTCHAR Rfraktur
ENCODING 8476
SWIDTH 795 0
DWIDTH 8 0
BBX 8 8 0 0
BITMAP
6C
92
92
5C
14
12
52
A3
ENDCHAR
STARTCHAR trademark
ENCODING 8482
SWIDTH 980 0
DWIDTH 11 0
BBX 9 4 0 3
BITMAP
E880
4D80
4A80
4A80
ENDCHAR
STARTCHAR Omega
ENCODING 8486
SWIDTH 768 0
DWIDTH 9 0
BBX 8 7 0 0
BITMAP
3C
66
42
42
66
A5
E7
ENDCHAR
STARTCHAR uni2127
ENCODING 8487
SWIDTH 768 0
DWIDTH 9 0
BBX 8 7 0 0
BITMAP
E7
A5
66
42
42
66
3C
ENDCHAR
STARTCHAR uni212A
ENCODING 8490
SWIDTH 722 0
DWIDTH 7 0
BBX 6 7 0 0
BITMAP
EC
48
50
60
50
48
EC
ENDCHAR
STARTCHAR uni212B
ENCODING 8491
SWIDTH 722 0
DWIDTH 8 0
BBX 7 10 0 0
BITMAP
10
28
10
10
38
28
28
7C
44
EE
ENDCHAR
STARTCHAR uni2132
ENCODING 8498
SWIDTH 556 0
DWIDTH 6 0
BBX 5 7 0 0
BITMAP
38
10
10
70
10
90
F8
ENDCHAR
STARTCHAR aleph
ENCODING 8501
SWIDTH 823 0
DWIDTH 8 0
BBX 7 7 0 0
BITMAP
CC
66
34
5C
4C
26
62
ENDCHAR
STARTCHAR arrowleft
ENCODING 8592
SWIDTH 987 0
DWIDTH 10 0
BBX 10 5 0 0
BITMAP
2000
4000
FFC0
4000
2000
ENDCHAR
STARTCHAR arrowup
ENCODING 8593
SWIDTH 603 0
DWIDTH 6 0
BBX 5 14 0 -4
BITMAP
20
70
A8
20
20
20
20
20
20
20
20
20
20
20
ENDCHAR
STARTCHAR arrowright
ENCODING 8594
SWIDTH 987 0
DWIDTH 10 0
BBX 10 5 0 0
BITMAP
0100
0080
FFC0
0080
0100
ENDCHAR
STARTCHAR arrowdown
ENCODING 8595
SWIDTH 603 0
DWIDTH 6 0
BBX 5 13 0 -2
BITMAP
20
20
20
20
20
20
20
20
20
20
A8
70
20
ENDCHAR
STARTCHAR arrowboth
ENCODING 8596
SWIDTH 1042 0
DWIDTH 10 0
BBX 10 5 0 0
BITMAP
2100
4080
FFC0
4080
2100
ENDCHAR
STARTCHAR uni219A
ENCODING 8602
SWIDTH 987 0
DWIDTH 10 0
BBX 10 7 0 -1
BITMAP
0200
2200
4400
FFC0
4400
2800
0800
ENDCHAR
STARTCHAR uni219B
ENCODING 8603
SWIDTH 987 0
DWIDTH 10 0
BBX 10 7 0 -1
BITMAP
0200
0300
0480
FFC0
0480
0900
0800
ENDCHAR
STARTCHAR uni21AE
ENCODING 8622
SWIDTH 1042 0
DWIDTH 10 0
BBX 10 7 0 -1
BITMAP
0200
2300
4480
FFC0
4480
2900
0800
ENDCHAR
STARTCHAR carriagereturn
ENCODING 8629
SWIDTH 658 0
DWIDTH 7 0
BBX 6 6 0 0
BITMAP
04
04
04
44
FC
40
ENDCHAR
STARTCHAR uni21CD
ENCODING 8653
SWIDTH 987 0
DWIDTH 10 0
BBX 9 7 0 -1
BITMAP
0400
2400
7F80
8800
7F80
3000
1000
ENDCHAR
STARTCHAR uni21CE
ENCODING 8654
SWIDTH 1042 0
DWIDTH 11 0
BBX 10 7 0 -1
BITMAP
0200
2300
7F80
8440
7F80
2900
0800
ENDCHAR
STARTCHAR uni21CF
ENCODING 8655
SWIDTH 987 0
DWIDTH 10 0
BBX 9 7 0 -1
BITMAP
0400
0600
FF00
0880
FF00
1200
1000
ENDCHAR
STARTCHAR arrowdblleft
ENCODING 8656
SWIDTH 987 0
DWIDTH 10 0
BBX 9 5 0 0
BITMAP
2000
7F80
8000
7F80
2000
ENDCHAR
STARTCHAR arrowdblup
ENCODING 8657
SWIDTH 603 0
DWIDTH 6 0
BBX 5 10 0 0
BITMAP
20
70
D8
50
50
50
50
50
50
50
ENDCHAR
STARTCHAR arrowdblright
ENCODING 8658
SWIDTH 987 0
DWIDTH 10 0
BBX 9 5 0 0
BITMAP
0200
FF00
0080
FF00
0200
ENDCHAR
STARTCHAR arrowdbldown
ENCODING 8659
SWIDTH 603 0
DWIDTH 6 0
BBX 5 10 0 0
BITMAP
50
50
50
50
50
50
50
D8
50
20
ENDCHAR
STARTCHAR arrowdblboth
ENCODING 8660
SWIDTH 1042 0
DWIDTH 11 0
BBX 10 5 0 0
BITMAP
2100
7F80
8040
7F80
2100
ENDCHAR
STARTCHAR universal
ENCODING 8704
SWIDTH 713 0
DWIDTH 7 0
BBX 7 7 0 0
BITMAP
82
44
7C
28
28
10
10
ENDCHAR
STARTCHAR partialdiff
ENCODING 8706
SWIDTH 494 0
DWIDTH 5 0
BBX 4 8 0 0
BITMAP
60
90
10
10
70
90
90
60
ENDCHAR
STARTCHAR existential
ENCODING 8707
SWIDTH 549 0
DWIDTH 6 0
BBX 5 7 0 0
BITMAP
F8
08
08
78
08
08
F8
ENDCHAR
STARTCHAR uni2204
ENCODING 8708
SWIDTH 549 0
DWIDTH 6 0
BBX 5 7 0 0
BITMAP
F8
18
28
78
28
48
F8
ENDCHAR
STARTCHAR emptyset
ENCODING 8709
SWIDTH 823 0
DWIDTH 8 0
BBX 7 9 0 -1
BITMAP
02
3C
4C
8A
92
A2
64
78
80
ENDCHAR
STARTCHAR Delta
ENCODING 8710
SWIDTH 612 0
DWIDTH 7 0
BBX 6 7 0 0
BITMAP
30
30
58
48
8C
84
FC
ENDCHAR
STARTCHAR gradient
ENCODING 8711
SWIDTH 713 0
DWIDTH 7 0
BBX 6 7 0 0
BITMAP
FC
84
84
48
48
30
30
ENDCHAR
STARTCHAR element
ENCODING 8712
SWIDTH 713 0
DWIDTH 7 0
BBX 5 5 1 0
BITMAP
78
80
F8
80
78
ENDCHAR
STARTCHAR notelement
ENCODING 8713
SWIDTH 713 0
DWIDTH 7 0
BBX 5 7 1 -1
BITMAP
10
78
90
F8
A0
78
40
ENDCHAR
STARTCHAR uni220A
ENCODING 8714
SWIDTH 439 0
DWIDTH 5 0
BBX 4 5 0 0
BITMAP
70
80
E0
80
70
ENDCHAR
STARTCHAR suchthat
ENCODING 8715
SWIDTH 713 0
DWIDTH 7 0
BBX 5 5 1 0
BITMAP
F0
08
F8
08
F0
ENDCHAR
STARTCHAR uni220C
ENCODING 8716
SWIDTH 713 0
DWIDTH 7 0
BBX 5 7 1 -1
BITMAP
10
F0
28
F8
28
F0
40
ENDCHAR
STARTCHAR uni220D
ENCODING 8717
SWIDTH 439 0
DWIDTH 5 0
BBX 4 5 0 0
BITMAP
E0
10
70
10
E0
ENDCHAR
STARTCHAR product
ENCODING 8719
SWIDTH 823 0
DWIDTH 9 0
BBX 8 9 0 -1
BITMAP
FF
42
42
42
42
42
42
42
E7
ENDCHAR
STARTCHAR summation
ENCODING 8721
SWIDTH 713 0
DWIDTH 7 0
BBX 6 9 0 -1
BITMAP
FC
84
40
20
10
20
40
84
FC
ENDCHAR
STARTCHAR minus
ENCODING 8722
SWIDTH 564 0
DWIDTH 7 0
BBX 5 1 0 2
BITMAP
F8
ENDCHAR
STARTCHAR fraction
ENCODING 8725
SWIDTH 167 0
DWIDTH 4 0
BBX 5 7 -1 0
BITMAP
08
10
10
20
40
40
80
ENDCHAR
STARTCHAR asteriskmath
ENCODING 8727
SWIDTH 500 0
DWIDTH 5 0
BBX 3 3 1 2
BITMAP
A0
40
A0
ENDCHAR
STARTCHAR periodcentered
ENCODING 8729
SWIDTH 250 0
DWIDTH 2 0
BBX 1 1 0 2
BITMAP
80
ENDCHAR
STARTCHAR radical
ENCODING 8730
SWIDTH 549 0
DWIDTH 6 0
BBX 6 10 0 0
BITMAP
04
04
08
08
48
D0
50
50
20
20
ENDCHAR
STARTCHAR proportional
ENCODING 8733
SWIDTH 713 0
DWIDTH 7 0
BBX 6 3 0 1
BITMAP
6C
90
6C
ENDCHAR
STARTCHAR infinity
ENCODING 8734
SWIDTH 713 0
DWIDTH 7 0
BBX 7 3 0 1
BITMAP
6C
92
6C
ENDCHAR
STARTCHAR angle
ENCODING 8736
SWIDTH 768 0
DWIDTH 8 0
BBX 7 7 0 0
BITMAP
02
04
08
10
20
40
FE
ENDCHAR
STARTCHAR logicaland
ENCODING 8743
SWIDTH 603 0
DWIDTH 6 0
BBX 5 5 0 0
BITMAP
20
50
50
88
88
ENDCHAR
STARTCHAR logicalor
ENCODING 8744
SWIDTH 603 0
DWIDTH 6 0
BBX 5 5 0 0
BITMAP
88
88
50
50
20
ENDCHAR
STARTCHAR intersection
ENCODING 8745
SWIDTH 768 0
DWIDTH 8 0
BBX 7 5 0 0
BITMAP
38
44
82
82
82
ENDCHAR
STARTCHAR union
ENCODING 8746
SWIDTH 768 0
DWIDTH 8 0
BBX 7 5 0 0
BITMAP
82
82
82
44
38
ENDCHAR
STARTCHAR integral
ENCODING 8747
SWIDTH 274 0
DWIDTH 3 0
BBX 3 12 0 -2
BITMAP
20
40
40
40
40
40
40
40
40
40
40
80
ENDCHAR
STARTCHAR therefore
ENCODING 8756
SWIDTH 863 0
DWIDTH 7 0
BBX 5 5 1 0
BITMAP
20
00
00
00
88
ENDCHAR
STARTCHAR uni2235
ENCODING 8757
SWIDTH 863 0
DWIDTH 7 0
BBX 5 5 1 0
BITMAP
88
00
00
00
20
ENDCHAR
STARTCHAR uni2236
ENCODING 8758
SWIDTH 278 0
DWIDTH 3 0
BBX 1 5 1 0
BITMAP
80
00
00
00
80
ENDCHAR
STARTCHAR similar
ENCODING 8764
SWIDTH 549 0
DWIDTH 6 0
BBX 5 2 0 2
BITMAP
68
B0
ENDCHAR
STARTCHAR uni2241
ENCODING 8769
SWIDTH 549 0
DWIDTH 6 0
BBX 5 7 0 0
BITMAP
10
10
20
68
B0
40
40
ENDCHAR
STARTCHAR congruent
ENCODING 8773
SWIDTH 549 0
DWIDTH 6 0
BBX 5 6 0 0
BITMAP
68
B0
00
F8
00
F8
ENDCHAR
STARTCHAR uni2247
ENCODING 8775
SWIDTH 549 0
DWIDTH 6 0
BBX 5 7 0 0
BITMAP
10
78
B0
20
F8
40
F8
ENDCHAR
STARTCHAR approxequal
ENCODING 8776
SWIDTH 549 0
DWIDTH 6 0
BBX 5 5 0 0
BITMAP
68
B0
00
68
B0
ENDCHAR
STARTCHAR uni2249
ENCODING 8777
SWIDTH 549 0
DWIDTH 6 0
BBX 5 7 0 -1
BITMAP
10
78
B0
20
68
F0
40
ENDCHAR
STARTCHAR uni2259
ENCODING 8793
SWIDTH 564 0
DWIDTH 6 0
BBX 5 6 0 1
BITMAP
20
50
00
F8
00
F8
ENDCHAR
STARTCHAR uni225A
ENCODING 8794
SWIDTH 564 0
DWIDTH 6 0
BBX 5 6 0 1
BITMAP
50
20
00
F8
00
F8
ENDCHAR
STARTCHAR notequal
ENCODING 8800
SWIDTH 549 0
DWIDTH 6 0
BBX 5 5 0 0
BITMAP
10
F8
20
F8
40
ENDCHAR
STARTCHAR equivalence
ENCODING 8801
SWIDTH 549 0
DWIDTH 6 0
BBX 5 5 0 1
BITMAP
F8
00
F8
00
F8
ENDCHAR
STARTCHAR uni2262
ENCODING 8802
SWIDTH 549 0
DWIDTH 6 0
BBX 5 7 0 0
BITMAP
10
F8
20
F8
20
F8
40
ENDCHAR
STARTCHAR lessequal
ENCODING 8804
SWIDTH 549 0
DWIDTH 6 0
BBX 5 7 0 0
BITMAP
08
30
C0
30
08
00
F8
ENDCHAR
STARTCHAR greaterequal
ENCODING 8805
SWIDTH 549 0
DWIDTH 6 0
BBX 5 7 0 0
BITMAP
80
60
18
60
80
00
F8
ENDCHAR
STARTCHAR uni226E
ENCODING 8814
SWIDTH 564 0
DWIDTH 5 0
BBX 3 7 1 -1
BITMAP
20
20
40
C0
40
A0
80
ENDCHAR
STARTCHAR uni226F
ENCODING 8815
SWIDTH 564 0
DWIDTH 5 0
BBX 3 7 0 -1
BITMAP
20
A0
40
60
40
80
80
ENDCHAR
STARTCHAR uni2270
ENCODING 8816
SWIDTH 549 0
DWIDTH 6 0
BBX 5 7 0 0
BITMAP
18
30
E0
30
28
40
F8
ENDCHAR
STARTCHAR uni2271
ENCODING 8817
SWIDTH 549 0
DWIDTH 6 0
BBX 5 7 0 0
BITMAP
90
70
38
60
A0
40
F8
ENDCHAR
STARTCHAR propersubset
ENCODING 8834
SWIDTH 713 0
DWIDTH 7 0
BBX 7 5 0 0
BITMAP
3E
40
80
40
3E
ENDCHAR
STARTCHAR propersuperset
ENCODING 8835
SWIDTH 713 0
DWIDTH 7 0
BBX 7 5 0 0
BITMAP
F8
04
02
04
F8
ENDCHAR
STARTCHAR notsubset
ENCODING 8836
SWIDTH 713 0
DWIDTH 7 0
BBX 7 7 0 -1
BITMAP
04
3E
48
88
50
3E
20
ENDCHAR
STARTCHAR uni2285
ENCODING 8837
SWIDTH 713 0
DWIDTH 7 0
BBX 7 7 0 -1
BITMAP
08
F8
14
12
14
F8
20
ENDCHAR
STARTCHAR reflexsubset
ENCODING 8838
SWIDTH 713 0
DWIDTH 7 0
BBX 7 7 0 -2
BITMAP
3E
40
80
40
3E
00
FE
ENDCHAR
STARTCHAR reflexsuperset
ENCODING 8839
SWIDTH 713 0
DWIDTH 7 0
BBX 7 7 0 -2
BITMAP
F8
04
02
04
F8
00
FE
ENDCHAR
STARTCHAR uni2288
ENCODING 8840
SWIDTH 713 0
DWIDTH 7 0
BBX 7 7 0 -2
BITMAP
3E
48
90
50
3E
20
FE
ENDCHAR
STARTCHAR uni2289
ENCODING 8841
SWIDTH 713 0
DWIDTH 7 0
BBX 7 7 0 -2
BITMAP
F8
0C
12
14
F8
20
FE
ENDCHAR
STARTCHAR circleplus
ENCODING 8853
SWIDTH 768 0
DWIDTH 8 0
BBX 7 7 0 0
BITMAP
38
44
92
BA
92
44
38
ENDCHAR
STARTCHAR circlemultiply
ENCODING 8855
SWIDTH 768 0
DWIDTH 8 0
BBX 7 7 0 0
BITMAP
38
44
AA
92
AA
44
38
ENDCHAR
STARTCHAR uni22A4
ENCODING 8868
SWIDTH 658 0
DWIDTH 7 0
BBX 5 7 1 0
BITMAP
F8
20
20
20
20
20
20
ENDCHAR
STARTCHAR perpendicular
ENCODING 8869
SWIDTH 658 0
DWIDTH 7 0
BBX 5 7 1 0
BITMAP
20
20
20
20
20
20
F8
ENDCHAR
STARTCHAR dotmath
ENCODING 8901
SWIDTH 250 0
DWIDTH 3 0
BBX 1 1 1 2
BITMAP
80
ENDCHAR
STARTCHAR integraltp
ENCODING 8992
SWIDTH 686 0
DWIDTH 7 0
BBX 4 14 3 -4
BITMAP
30
50
80
80
80
80
80
80
80
80
80
80
80
80
ENDCHAR
STARTCHAR integralbt
ENCODING 8993
SWIDTH 686 0
DWIDTH 7 0
BBX 4 13 0 -2
BITMAP
10
10
10
10
10
10
10
10
10
10
10
A0
C0
ENDCHAR
STARTCHAR angleleft
ENCODING 9001
SWIDTH 329 0
DWIDTH 3 0
BBX 3 9 0 -2
BITMAP
20
20
40
40
80
40
40
20
20
ENDCHAR
STARTCHAR angleright
ENCODING 9002
SWIDTH 329 0
DWIDTH 3 0
BBX 3 9 0 -2
BITMAP
80
80
40
40
20
40
40
80
80
ENDCHAR
STARTCHAR lozenge
ENCODING 9674
SWIDTH 494 0
DWIDTH 7 0
BBX 7 7 0 0
BITMAP
10
28
44
C6
44
28
10
ENDCHAR
STARTCHAR spade
ENCODING 9824
SWIDTH 753 0
DWIDTH 7 0
BBX 5 5 1 0
BITMAP
20
70
F8
F8
20
ENDCHAR
STARTCHAR club
ENCODING 9827
SWIDTH 753 0
DWIDTH 7 0
BBX 5 5 1 0
BITMAP
70
70
F8
F8
20
ENDCHAR
STARTCHAR heart
ENCODING 9829
SWIDTH 753 0
DWIDTH 7 0
BBX 5 5 1 0
BITMAP
D8
F8
F8
70
20
ENDCHAR
STARTCHAR diamond
ENCODING 9830
SWIDTH 753 0
DWIDTH 7 0
BBX 5 5 1 0
BITMAP
20
70
F8
70
20
ENDCHAR
STARTCHAR fi
ENCODING -1
SWIDTH 556 0
DWIDTH 6 0
BBX 6 7 0 0
BITMAP
38
40
F8
48
48
48
FC
ENDCHAR
STARTCHAR fl
ENCODING -1
SWIDTH 556 0
DWIDTH 6 0
BBX 6 7 0 0
BITMAP
38
48
F8
48
48
48
FC
ENDCHAR
ENDFONT
